g head
v -0.0787401646 -0.0106297154 -0.0787401646
v 0.0787401646 0.146850601 -0.0787401646
v -0.0787401646 0.146850601 -0.0787401646
v 0.0787401646 -0.0106297154 -0.0787401646
v -0.0787401646 -0.0106297154 0.0787401646
v 0.0787401646 0.146850601 0.0787401646
v 0.0787401646 -0.0106297154 0.0787401646
v -0.0787401646 0.146850601 0.0787401646
v -0.0787401646 -0.0106297154 -0.0787401646
v 0.0787401646 -0.0106297154 0.0787401646
v 0.0787401646 -0.0106297154 -0.0787401646
v -0.0787401646 -0.0106297154 0.0787401646
v 0.0787401646 -0.0106297154 -0.0787401646
v 0.0787401646 0.146850601 0.0787401646
v 0.0787401646 0.146850601 -0.0787401646
v 0.0787401646 -0.0106297154 0.0787401646
v 0.0787401646 0.146850601 -0.0787401646
v -0.0787401646 0.146850601 0.0787401646
v -0.0787401646 0.146850601 -0.0787401646
v 0.0787401646 0.146850601 0.0787401646
v -0.0787401646 0.146850601 -0.0787401646
v -0.0787401646 -0.0106297154 0.0787401646
v -0.0787401646 -0.0106297154 -0.0787401646
v -0.0787401646 0.146850601 0.0787401646
vt 0.24935399 0.501809537
vt 0.125423789 0.749156117
vt 0.24935399 0.748931348
vt 0.125423789 0.501809537
vt 0.375834107 0.501557469
vt 0.499326676 0.747026801
vt 0.499597877 0.501557469
vt 0.375667214 0.747026801
vt 0.251392424 0.751355886
vt 0.373837769 0.995262027
vt 0.373837769 0.751355886
vt 0.251392424 0.995262027
vt 0.124351911 0.50064218
vt 1.2696878E-05 0.74933058
vt 0.124145336 0.74933058
vt 0.000219270267 0.50064218
vt 0.249780342 0.750556827
vt 0.126053423 0.99835676
vt 0.249763712 0.99835676
vt 0.126070052 0.750556827
vt 0.250898719 0.74893558
vt 0.374488145 0.501364827
vt 0.250898719 0.50130862
vt 0.374488145 0.74893558
vn -0 0 -1
vn -0 0 -1
vn -0 0 -1
vn -0 0 -1
vn -0 0 1
vn -0 0 1
vn -0 0 1
vn -0 0 1
vn -0 -1 0
vn -0 -1 0
vn -0 -1 0
vn -0 -1 0
vn 1 0 0
vn 1 0 0
vn 1 0 0
vn 1 0 0
vn -0 1 0
vn -0 1 0
vn -0 1 0
vn -0 1 0
vn -1 0 0
vn -1 0 0
vn -1 0 0
vn -1 0 0
f 3/3/3 2/2/2 1/1/1
f 2/2/2 4/4/4 1/1/1
f 7/7/7 6/6/6 5/5/5
f 6/6/6 8/8/8 5/5/5
f 11/11/11 10/10/10 9/9/9
f 10/10/10 12/12/12 9/9/9
f 15/15/15 14/14/14 13/13/13
f 14/14/14 16/16/16 13/13/13
f 19/19/19 18/18/18 17/17/17
f 18/18/18 20/20/20 17/17/17
f 23/23/23 22/22/22 21/21/21
f 22/22/22 24/24/24 21/21/21
g trunk
v -0.0787401646 -0.0270269252 -0.0393700823
v 0.0787401646 0.209193558 -0.0393700823
v -0.0787401646 0.209193558 -0.0393700823
v 0.0787401646 -0.0270269252 -0.0393700823
v -0.0787401646 -0.0270269252 0.0393700823
v 0.0787401646 0.209193558 0.0393700823
v 0.0787401646 -0.0270269252 0.0393700823
v -0.0787401646 0.209193558 0.0393700823
v -0.0787401646 -0.0270269252 -0.0393700823
v 0.0787401646 -0.0270269252 0.0393700823
v 0.0787401646 -0.0270269252 -0.0393700823
v -0.0787401646 -0.0270269252 0.0393700823
v 0.0787401646 -0.0270269252 -0.0393700823
v 0.0787401646 0.209193558 0.0393700823
v 0.0787401646 0.209193558 -0.0393700823
v 0.0787401646 -0.0270269252 0.0393700823
v 0.0787401646 0.209193558 -0.0393700823
v -0.0787401646 0.209193558 0.0393700823
v -0.0787401646 0.209193558 -0.0393700823
v 0.0787401646 0.209193558 0.0393700823
v -0.0787401646 0.209193558 -0.0393700823
v -0.0787401646 -0.0270269252 0.0393700823
v -0.0787401646 -0.0270269252 -0.0393700823
v -0.0787401646 0.209193558 0.0393700823
vt 0.437516481 0.000215828361
vt 0.31250307 0.374654144
vt 0.437516481 0.374771029
vt 0.312503129 6.41623628E-05
vt 0.500021458 7.20256503E-05
vt 0.62499994 0.374613792
vt 0.62499994 7.20256503E-05
vt 0.500021458 0.374613792
vt 0.562464356 0.49996978
vt 0.437504053 0.374998778
vt 0.437504053 0.49996978
vt 0.562464356 0.374998778
vt 0.312503129 6.41623628E-05
vt 0.250027716 0.374654144
vt 0.31250307 0.374654144
vt 0.250027776 6.41623628E-05
vt 0.437366992 0.499905765
vt 0.31252566 0.375053793
vt 0.31252566 0.499905765
vt 0.437366992 0.375053793
vt 0.437516481 0.374771029
vt 0.500021458 7.20256503E-05
vt 0.437516481 0.000215828361
vt 0.500021458 0.374613792
vn -0 0 -1
vn -0 0 -1
vn -0 0 -1
vn -0 0 -1
vn -0 0 1
vn -0 0 1
vn -0 0 1
vn -0 0 1
vn -0 -1 0
vn -0 -1 0
vn -0 -1 0
vn -0 -1 0
vn 1 0 0
vn 1 0 0
vn 1 0 0
vn 1 0 0
vn -0 1 0
vn -0 1 0
vn -0 1 0
vn -0 1 0
vn -1 0 0
vn -1 0 0
vn -1 0 0
vn -1 0 0
f 27/27/27 26/26/26 25/25/25
f 28/28/28 25/25/25 26/26/26
f 31/31/31 30/30/30 29/29/29
f 32/32/32 29/29/29 30/30/30
f 35/35/35 34/34/34 33/33/33
f 36/36/36 33/33/33 34/34/34
f 39/39/39 38/38/38 37/37/37
f 40/40/40 37/37/37 38/38/38
f 43/43/43 42/42/42 41/41/41
f 44/44/44 41/41/41 42/42/42
f 47/47/47 46/46/46 45/45/45
f 48/48/48 45/45/45 46/46/46
g leg_left
v -0.109233148 0.0413385853 0.0233459827
v -0.191910326 0.0413385853 0.0233459827
v -0.109233148 -0.0413385853 0.0233459827
v -0.191910326 -0.0413385853 0.0233459827
v -0.191910326 -0.0413385853 0.0452224948
v -0.191910326 0.0413385853 0.0452224948
v -0.109233148 -0.0413385853 0.0452224948
v -0.109233148 0.0413385853 0.0452224948
v -0.109233148 -0.0413385853 0.0233459827
v -0.191910326 -0.0413385853 0.0233459827
v -0.109233148 -0.0413385853 0.0452224948
v -0.191910326 -0.0413385853 0.0452224948
v -0.109233148 -0.0413385853 0.0452224948
v -0.109233148 0.0413385853 0.0452224948
v -0.109233148 -0.0413385853 0.0233459827
v -0.109233148 0.0413385853 0.0233459827
v -0.109233148 0.0413385853 0.0452224948
v -0.191910326 0.0413385853 0.0452224948
v -0.109233148 0.0413385853 0.0233459827
v -0.191910326 0.0413385853 0.0233459827
v -0.191910326 -0.0413385853 0.0452224948
v -0.191910326 -0.0413385853 0.0233459827
v -0.191910326 0.0413385853 0.0452224948
v -0.191910326 0.0413385853 0.0233459827
v -0.103327639 0.047244098 0.0453675278
v -0.197815835 0.047244098 0.0453675278
v -0.103327639 -0.047244098 0.0453675278
v -0.197815835 -0.047244098 0.0453675278
v -0.103327639 0.047244098 0.14173232
v -0.103327639 -0.047244098 0.14173232
v -0.197815835 0.047244098 0.14173232
v -0.197815835 -0.047244098 0.14173232
v -0.197815835 -0.047244098 0.0453675278
v -0.197815835 -0.047244098 0.14173232
v -0.103327639 -0.047244098 0.0453675278
v -0.103327639 -0.047244098 0.14173232
v -0.103327639 0.047244098 0.0453675278
v -0.103327639 -0.047244098 0.0453675278
v -0.103327639 0.047244098 0.14173232
v -0.103327639 -0.047244098 0.14173232
v -0.103327639 0.047244098 0.14173232
v -0.197815835 0.047244098 0.14173232
v -0.103327639 0.047244098 0.0453675278
v -0.197815835 0.047244098 0.0453675278
v -0.197815835 0.047244098 0.0453675278
v -0.197815835 0.047244098 0.14173232
v -0.197815835 -0.047244098 0.0453675278
v -0.197815835 -0.047244098 0.14173232
v -0.103327639 0.047244098 -0.0705953538
v -0.197815835 0.047244098 -0.0705953538
v -0.103327639 -0.047244098 -0.0705953538
v -0.197815835 -0.047244098 -0.0705953538
v -0.103327639 -0.047244098 0.0237845778
v -0.197815835 -0.047244098 0.0237845778
v -0.103327639 0.047244098 0.0237845778
v -0.197815835 0.047244098 0.0237845778
v -0.103327639 -0.047244098 -0.0705953538
v -0.197815835 -0.047244098 -0.0705953538
v -0.103327639 -0.047244098 0.0237845778
v -0.197815835 -0.047244098 0.0237845778
v -0.103327639 0.047244098 -0.0705953538
v -0.103327639 -0.047244098 -0.0705953538
v -0.103327639 0.047244098 0.0237845778
v -0.103327639 -0.047244098 0.0237845778
v -0.103327639 0.047244098 0.0237845778
v -0.197815835 0.047244098 0.0237845778
v -0.103327639 0.047244098 -0.0705953538
v -0.197815835 0.047244098 -0.0705953538
v -0.197815835 0.047244098 0.0237845778
v -0.197815835 -0.047244098 0.0237845778
v -0.197815835 0.047244098 -0.0705953538
v -0.197815835 -0.047244098 -0.0705953538
v -0.104838714 0.0472441055 -0.141732305
v -0.199326918 0.0472441055 -0.141732305
v -0.104838714 -0.0944882035 -0.141732305
v -0.199326918 -0.0944882035 -0.141732305
v -0.110088065 -0.0472440682 -0.0944881961
v -0.120586723 -0.0472440682 -0.0944881961
v -0.110744223 -0.0413385779 -0.0944881961
v -0.194077566 -0.0472440682 -0.0944881961
v -0.193421409 -0.0413385779 -0.0944881961
v -0.199326918 -0.0472440869 -0.0944881961
v -0.199326918 -0.0413385779 -0.0944881961
v -0.199326918 0.0472441055 -0.0944881961
v -0.193421409 0.0413385928 -0.0944881961
v -0.104838714 0.0472441055 -0.0944881961
v -0.110744223 0.0413385928 -0.0944881961
v -0.104838714 0.0236220509 -0.0944881961
v -0.104838714 -0.0413385779 -0.0944881961
v -0.104838714 -0.0472440682 -0.0944881961
v -0.199326918 -0.0944882035 -0.0944881961
v -0.104838714 -0.0944882035 -0.0944881961
v -0.104838714 -0.0944882035 -0.141732305
v -0.199326918 -0.0944882035 -0.141732305
v -0.104838714 -0.0944882035 -0.0944881961
v -0.199326918 -0.0944882035 -0.0944881961
v -0.104838714 -0.0944882035 -0.141732305
v -0.104838714 -0.0472441167 -0.0944881961
v -0.104838714 0.0472441055 -0.0944881961
v -0.104838714 -0.0944882035 -0.0944881961
v -0.104838714 0.0472441055 -0.141732305
v -0.104838714 0.0472441055 -0.141732305
v -0.104838714 0.0472441055 -0.0944881961
v -0.199326918 0.0472441055 -0.141732305
v -0.199326918 0.0472441055 -0.0944881961
v -0.199326918 0.0472441055 -0.0944881961
v -0.199326918 -0.0944882035 -0.0944881961
v -0.199326918 0.0472441055 -0.141732305
v -0.199326918 -0.0944882035 -0.141732305
v -0.110744223 0.0413385928 -0.0708661675
v -0.193421409 -0.0413385779 -0.0708661675
v -0.193421409 0.0413385928 -0.0708661675
v -0.110744223 -0.0413385779 -0.0708661675
v -0.110744223 0.0413385928 -0.0708661675
v -0.110744223 0.0413385928 -0.0944881961
v -0.110744223 -0.0413385779 -0.0708661675
v -0.110744223 -0.0413385779 -0.0944881961
v -0.110744223 0.0413385928 -0.0944881961
v -0.110744223 0.0413385928 -0.0708661675
v -0.193421409 0.0413385928 -0.0944881961
v -0.193421409 0.0413385928 -0.0708661675
v -0.193421409 -0.0413385779 -0.0708661675
v -0.193421409 -0.0413385779 -0.0944881961
v -0.193421409 0.0413385928 -0.0708661675
v -0.193421409 0.0413385928 -0.0944881961
v -0.110744223 -0.0413385779 -0.0944881961
v -0.193421409 -0.0413385779 -0.0944881961
v -0.193421409 -0.0413385779 -0.0708661675
v -0.110744223 -0.0413385779 -0.0708661675
vt 0.623437524 0.131249994
vt 0.565625012 0.131249994
vt 0.623437524 0.243750006
vt 0.565625012 0.243750006
vt 0.565625012 0.131249994
vt 0.565625012 0.243750006
vt 0.623437524 0.131249994
vt 0.623437524 0.243750006
vt 0.4375 0.21875
vt 0.375 0.21875
vt 0.4375 0.253125012
vt 0.375 0.253125012
vt 0.4375 0.253125012
vt 0.5 0.253125012
vt 0.4375 0.21875
vt 0.5 0.21875
vt 0.5 0.253125012
vt 0.5625 0.253125012
vt 0.5 0.21875
vt 0.5625 0.21875
vt 0.375 0.253125012
vt 0.375 0.21875
vt 0.3125 0.253125012
vt 0.3125 0.21875
vt 0.623437524 0.131249994
vt 0.565625012 0.131249994
vt 0.623437524 0.243750006
vt 0.565625012 0.243750006
vt 0.623437524 0.371874988
vt 0.623437524 0.253125012
vt 0.564062476 0.371874988
vt 0.564062476 0.253125012
vt 0.375 0.253125012
vt 0.375 0.375
vt 0.4375 0.253125012
vt 0.4375 0.375
vt 0.5 0.253125012
vt 0.4375 0.253125012
vt 0.5 0.375
vt 0.4375 0.375
vt 0.5 0.375
vt 0.5625 0.375
vt 0.5 0.253125012
vt 0.5625 0.253125012
vt 0.3125 0.253125012
vt 0.3125 0.375
vt 0.375 0.253125012
vt 0.375 0.375
vt 0.623437524 0.131249994
vt 0.565625012 0.131249994
vt 0.623437524 0.243750006
vt 0.565625012 0.243750006
vt 0.623437524 0.131249994
vt 0.565625012 0.131249994
vt 0.623437524 0.243750006
vt 0.565625012 0.243750006
vt 0.4375 0.065624997
vt 0.375 0.065624997
vt 0.4375 0.21875
vt 0.375 0.21875
vt 0.5 0.065624997
vt 0.4375 0.065624997
vt 0.5 0.21875
vt 0.4375 0.21875
vt 0.5 0.21875
vt 0.5625 0.21875
vt 0.5 0.065624997
vt 0.5625 0.065624997
vt 0.3125 0.21875
vt 0.375 0.21875
vt 0.3125 0.065624997
vt 0.375 0.065624997
vt 0.779687524 0.215625003
vt 0.720312476 0.215625003
vt 0.779687524 0.0625
vt 0.720312476 0.0625
vt 0.621874988 0.125
vt 0.614062488 0.125
vt 0.620312512 0.131249994
vt 0.567187488 0.125
vt 0.568750024 0.131249994
vt 0.564062476 0.125
vt 0.564062476 0.131249994
vt 0.564062476 0.246875003
vt 0.568750024 0.240624994
vt 0.623437524 0.246875003
vt 0.620312512 0.240624994
vt 0.623437524 0.212500006
vt 0.623437524 0.131249994
vt 0.623437524 0.125
vt 0.564062476 0.065624997
vt 0.623437524 0.065624997
vt 0.623437524 0.00312500005
vt 0.564062476 0.00312500005
vt 0.623437524 0.0593749993
vt 0.564062476 0.0593749993
vt 0.626562476 0.00312500005
vt 0.657812476 0.0593749993
vt 0.717187524 0.0593749993
vt 0.626562476 0.0593749993
vt 0.717187524 0.00312500005
vt 0.720312476 0.00312500005
vt 0.720312476 0.0593749993
vt 0.779687524 0.00312500005
vt 0.779687524 0.0593749993
vt 0.470312506 0.0593749993
vt 0.560937524 0.0593749993
vt 0.470312506 0.00312500005
vt 0.560937524 0.00312500005
vt 0.435937494 0.121875003
vt 0.376562506 0.096874997
vt 0.376562506 0.121875003
vt 0.435937494 0.096874997
vt 0.498437494 0.090625003
vt 0.498437494 0.065624997
vt 0.439062506 0.090625003
vt 0.439062506 0.065624997
vt 0.501562476 0.065624997
vt 0.501562476 0.090625003
vt 0.560937524 0.065624997
vt 0.560937524 0.090625003
vt 0.373437494 0.090625003
vt 0.373437494 0.065624997
vt 0.314062506 0.090625003
vt 0.314062506 0.065624997
vt 0.376562506 0.065624997
vt 0.435937494 0.065624997
vt 0.435937494 0.090625003
vt 0.376562506 0.090625003
vn -0 0 -1
vn -0 0 -1
vn -0 0 -1
vn -0 0 -1
vn -0 0 1
vn -0 0 1
vn -0 0 1
vn -0 0 1
vn -0 -1 0
vn -0 -1 0
vn -0 -1 0
vn -0 -1 0
vn 1 0 0
vn 1 0 0
vn 1 0 0
vn 1 0 0
vn -0 1 0
vn -0 1 0
vn -0 1 0
vn -0 1 0
vn -1 0 0
vn -1 0 0
vn -1 0 0
vn -1 0 0
vn -0 0 -1
vn -0 0 -1
vn -0 0 -1
vn -0 0 -1
vn -0 0 1
vn -0 0 1
vn -0 0 1
vn -0 0 1
vn -0 -1 0
vn -0 -1 0
vn -0 -1 0
vn -0 -1 0
vn 1 0 0
vn 1 0 0
vn 1 0 0
vn 1 0 0
vn -0 1 0
vn -0 1 0
vn -0 1 0
vn -0 1 0
vn -1 0 0
vn -1 0 0
vn -1 0 0
vn -1 0 0
vn -0 0 -1
vn -0 0 -1
vn -0 0 -1
vn -0 0 -1
vn -0 0 1
vn -0 0 1
vn -0 0 1
vn -0 0 1
vn -0 -1 0
vn -0 -1 0
vn -0 -1 0
vn -0 -1 0
vn 1 0 0
vn 1 0 0
vn 1 0 0
vn 1 0 0
vn -0 1 0
vn -0 1 0
vn -0 1 0
vn -0 1 0
vn -1 0 0
vn -1 0 0
vn -1 0 0
vn -1 0 0
vn -0 0 -1
vn -0 0 -1
vn -0 0 -1
vn -0 0 -1
vn -0 0 1
vn -0 0 1
vn -0 0 1
vn -0 0 1
vn -0 0 1
vn -0 0 1
vn -0 0 1
vn -0 0 1
vn -0 0 1
vn -0 0 1
vn -0 0 1
vn -0 0 1
vn -0 0 1
vn -0 0 1
vn -0 0 1
vn -0 0 1
vn -0 -1 0
vn -0 -1 0
vn -0 -1 0
vn -0 -1 0
vn 1 0 0
vn 1 0 0
vn 1 0 0
vn 1 0 0
vn 1 0 0
vn -0 1 0
vn -0 1 0
vn -0 1 0
vn -0 1 0
vn -1 0 0
vn -1 0 0
vn -1 0 0
vn -1 0 0
vn -0 0 1
vn -0 0 1
vn -0 0 1
vn -0 0 1
vn 1 0 0
vn 1 0 0
vn 1 0 0
vn 1 0 0
vn -0 1 0
vn -0 1 0
vn -0 1 0
vn -0 1 0
vn -1 0 0
vn -1 0 0
vn -1 0 0
vn -1 0 0
vn -0 -1 0
vn -0 -1 0
vn -0 -1 0
vn -0 -1 0
f 51/51/51 50/50/50 49/49/49
f 52/52/52 50/50/50 51/51/51
f 55/55/55 54/54/54 53/53/53
f 56/56/56 54/54/54 55/55/55
f 59/59/59 58/58/58 57/57/57
f 60/60/60 58/58/58 59/59/59
f 63/63/63 62/62/62 61/61/61
f 64/64/64 62/62/62 63/63/63
f 67/67/67 66/66/66 65/65/65
f 68/68/68 66/66/66 67/67/67
f 71/71/71 70/70/70 69/69/69
f 71/71/71 72/72/72 70/70/70
f 75/75/75 74/74/74 73/73/73
f 75/75/75 76/76/76 74/74/74
f 79/79/79 78/78/78 77/77/77
f 79/79/79 80/80/80 78/78/78
f 83/83/83 82/82/82 81/81/81
f 84/84/84 82/82/82 83/83/83
f 87/87/87 86/86/86 85/85/85
f 87/87/87 88/88/88 86/86/86
f 91/91/91 90/90/90 89/89/89
f 91/91/91 92/92/92 90/90/90
f 95/95/95 94/94/94 93/93/93
f 96/96/96 94/94/94 95/95/95
f 99/99/99 98/98/98 97/97/97
f 99/99/99 100/100/100 98/98/98
f 103/103/103 102/102/102 101/101/101
f 103/103/103 104/104/104 102/102/102
f 107/107/107 106/106/106 105/105/105
f 107/107/107 108/108/108 106/106/106
f 111/111/111 110/110/110 109/109/109
f 111/111/111 112/112/112 110/110/110
f 115/115/115 114/114/114 113/113/113
f 115/115/115 116/116/116 114/114/114
f 119/119/119 118/118/118 117/117/117
f 119/119/119 120/120/120 118/118/118
f 123/123/123 122/122/122 121/121/121
f 123/123/123 124/124/124 122/122/122
f 127/127/127 126/126/126 125/125/125
f 126/126/126 127/127/127 128/128/128
f 129/129/129 128/128/128 127/127/127
f 128/128/128 129/129/129 130/130/130
f 131/131/131 130/130/130 129/129/129
f 132/132/132 131/131/131 129/129/129
f 129/129/129 133/133/133 132/132/132
f 132/132/132 133/133/133 134/134/134
f 135/135/135 134/134/134 133/133/133
f 135/135/135 127/127/127 136/136/136
f 136/136/136 134/134/134 135/135/135
f 137/137/137 136/136/136 127/127/127
f 127/127/127 125/125/125 137/137/137
f 138/138/138 137/137/137 125/125/125
f 139/139/139 128/128/128 130/130/130
f 139/139/139 126/126/126 128/128/128
f 125/125/125 126/126/126 140/140/140
f 139/139/139 140/140/140 126/126/126
f 140/140/140 138/138/138 125/125/125
f 143/143/143 142/142/142 141/141/141
f 144/144/144 142/142/142 143/143/143
f 147/147/147 146/146/146 145/145/145
f 148/148/148 145/145/145 146/146/146
f 149/149/149 147/147/147 145/145/145
f 152/152/152 151/151/151 150/150/150
f 152/152/152 153/153/153 151/151/151
f 156/156/156 155/155/155 154/154/154
f 157/157/157 155/155/155 156/156/156
f 160/160/160 159/159/159 158/158/158
f 158/158/158 159/159/159 161/161/161
f 164/164/164 163/163/163 162/162/162
f 164/164/164 165/165/165 163/163/163
f 168/168/168 167/167/167 166/166/166
f 168/168/168 169/169/169 167/167/167
f 172/172/172 171/171/171 170/170/170
f 172/172/172 173/173/173 171/171/171
f 176/176/176 175/175/175 174/174/174
f 176/176/176 174/174/174 177/177/177
g leg_right
v -0.109233148 0.0413385853 0.0233459827
v -0.191910326 0.0413385853 0.0233459827
v -0.109233148 -0.0413385853 0.0233459827
v -0.191910326 -0.0413385853 0.0233459827
v -0.191910326 -0.0413385853 0.0452224948
v -0.191910326 0.0413385853 0.0452224948
v -0.109233148 -0.0413385853 0.0452224948
v -0.109233148 0.0413385853 0.0452224948
v -0.109233148 -0.0413385853 0.0233459827
v -0.191910326 -0.0413385853 0.0233459827
v -0.109233148 -0.0413385853 0.0452224948
v -0.191910326 -0.0413385853 0.0452224948
v -0.109233148 -0.0413385853 0.0452224948
v -0.109233148 0.0413385853 0.0452224948
v -0.109233148 -0.0413385853 0.0233459827
v -0.109233148 0.0413385853 0.0233459827
v -0.109233148 0.0413385853 0.0452224948
v -0.191910326 0.0413385853 0.0452224948
v -0.109233148 0.0413385853 0.0233459827
v -0.191910326 0.0413385853 0.0233459827
v -0.191910326 -0.0413385853 0.0452224948
v -0.191910326 -0.0413385853 0.0233459827
v -0.191910326 0.0413385853 0.0452224948
v -0.191910326 0.0413385853 0.0233459827
v -0.103327639 0.047244098 0.0453675278
v -0.197815835 0.047244098 0.0453675278
v -0.103327639 -0.047244098 0.0453675278
v -0.197815835 -0.047244098 0.0453675278
v -0.103327639 0.047244098 0.14173232
v -0.103327639 -0.047244098 0.14173232
v -0.197815835 0.047244098 0.14173232
v -0.197815835 -0.047244098 0.14173232
v -0.197815835 -0.047244098 0.0453675278
v -0.197815835 -0.047244098 0.14173232
v -0.103327639 -0.047244098 0.0453675278
v -0.103327639 -0.047244098 0.14173232
v -0.103327639 0.047244098 0.0453675278
v -0.103327639 -0.047244098 0.0453675278
v -0.103327639 0.047244098 0.14173232
v -0.103327639 -0.047244098 0.14173232
v -0.103327639 0.047244098 0.14173232
v -0.197815835 0.047244098 0.14173232
v -0.103327639 0.047244098 0.0453675278
v -0.197815835 0.047244098 0.0453675278
v -0.197815835 0.047244098 0.0453675278
v -0.197815835 0.047244098 0.14173232
v -0.197815835 -0.047244098 0.0453675278
v -0.197815835 -0.047244098 0.14173232
v -0.103327639 0.047244098 -0.0705953538
v -0.197815835 0.047244098 -0.0705953538
v -0.103327639 -0.047244098 -0.0705953538
v -0.197815835 -0.047244098 -0.0705953538
v -0.103327639 -0.047244098 0.0237845778
v -0.197815835 -0.047244098 0.0237845778
v -0.103327639 0.047244098 0.0237845778
v -0.197815835 0.047244098 0.0237845778
v -0.103327639 -0.047244098 -0.0705953538
v -0.197815835 -0.047244098 -0.0705953538
v -0.103327639 -0.047244098 0.0237845778
v -0.197815835 -0.047244098 0.0237845778
v -0.103327639 0.047244098 -0.0705953538
v -0.103327639 -0.047244098 -0.0705953538
v -0.103327639 0.047244098 0.0237845778
v -0.103327639 -0.047244098 0.0237845778
v -0.103327639 0.047244098 0.0237845778
v -0.197815835 0.047244098 0.0237845778
v -0.103327639 0.047244098 -0.0705953538
v -0.197815835 0.047244098 -0.0705953538
v -0.197815835 0.047244098 0.0237845778
v -0.197815835 -0.047244098 0.0237845778
v -0.197815835 0.047244098 -0.0705953538
v -0.197815835 -0.047244098 -0.0705953538
v -0.104838714 0.0472441055 -0.141732305
v -0.199326918 0.0472441055 -0.141732305
v -0.104838714 -0.0944882035 -0.141732305
v -0.199326918 -0.0944882035 -0.141732305
v -0.110088065 -0.0472440682 -0.0944881961
v -0.120586723 -0.0472440682 -0.0944881961
v -0.110744223 -0.0413385779 -0.0944881961
v -0.194077566 -0.0472440682 -0.0944881961
v -0.193421409 -0.0413385779 -0.0944881961
v -0.199326918 -0.0472440869 -0.0944881961
v -0.199326918 -0.0413385779 -0.0944881961
v -0.199326918 0.0472441055 -0.0944881961
v -0.193421409 0.0413385928 -0.0944881961
v -0.104838714 0.0472441055 -0.0944881961
v -0.110744223 0.0413385928 -0.0944881961
v -0.104838714 0.0236220509 -0.0944881961
v -0.104838714 -0.0413385779 -0.0944881961
v -0.104838714 -0.0472440682 -0.0944881961
v -0.199326918 -0.0944882035 -0.0944881961
v -0.104838714 -0.0944882035 -0.0944881961
v -0.104838714 -0.0944882035 -0.141732305
v -0.199326918 -0.0944882035 -0.141732305
v -0.104838714 -0.0944882035 -0.0944881961
v -0.199326918 -0.0944882035 -0.0944881961
v -0.104838714 -0.0944882035 -0.141732305
v -0.104838714 -0.0472441167 -0.0944881961
v -0.104838714 0.0472441055 -0.0944881961
v -0.104838714 -0.0944882035 -0.0944881961
v -0.104838714 0.0472441055 -0.141732305
v -0.104838714 0.0472441055 -0.141732305
v -0.104838714 0.0472441055 -0.0944881961
v -0.199326918 0.0472441055 -0.141732305
v -0.199326918 0.0472441055 -0.0944881961
v -0.199326918 0.0472441055 -0.0944881961
v -0.199326918 -0.0944882035 -0.0944881961
v -0.199326918 0.0472441055 -0.141732305
v -0.199326918 -0.0944882035 -0.141732305
v -0.110744223 0.0413385928 -0.0708661675
v -0.193421409 -0.0413385779 -0.0708661675
v -0.193421409 0.0413385928 -0.0708661675
v -0.110744223 -0.0413385779 -0.0708661675
v -0.110744223 0.0413385928 -0.0708661675
v -0.110744223 0.0413385928 -0.0944881961
v -0.110744223 -0.0413385779 -0.0708661675
v -0.110744223 -0.0413385779 -0.0944881961
v -0.110744223 0.0413385928 -0.0944881961
v -0.110744223 0.0413385928 -0.0708661675
v -0.193421409 0.0413385928 -0.0944881961
v -0.193421409 0.0413385928 -0.0708661675
v -0.193421409 -0.0413385779 -0.0708661675
v -0.193421409 -0.0413385779 -0.0944881961
v -0.193421409 0.0413385928 -0.0708661675
v -0.193421409 0.0413385928 -0.0944881961
v -0.110744223 -0.0413385779 -0.0944881961
v -0.193421409 -0.0413385779 -0.0944881961
v -0.193421409 -0.0413385779 -0.0708661675
v -0.110744223 -0.0413385779 -0.0708661675
vt 0.623437524 0.131249994
vt 0.565625012 0.131249994
vt 0.623437524 0.243750006
vt 0.565625012 0.243750006
vt 0.565625012 0.131249994
vt 0.565625012 0.243750006
vt 0.623437524 0.131249994
vt 0.623437524 0.243750006
vt 0.4375 0.21875
vt 0.375 0.21875
vt 0.4375 0.253125012
vt 0.375 0.253125012
vt 0.3125 0.253125012
vt 0.375 0.253125012
vt 0.3125 0.21875
vt 0.375 0.21875
vt 0.5625 0.253125012
vt 0.5 0.253125012
vt 0.5625 0.21875
vt 0.5 0.21875
vt 0.5 0.253125012
vt 0.5 0.21875
vt 0.4375 0.253125012
vt 0.4375 0.21875
vt 0.623437524 0.131249994
vt 0.565625012 0.131249994
vt 0.623437524 0.243750006
vt 0.565625012 0.243750006
vt 0.623437524 0.371874988
vt 0.623437524 0.253125012
vt 0.564062476 0.371874988
vt 0.564062476 0.253125012
vt 0.375 0.253125012
vt 0.375 0.375
vt 0.4375 0.253125012
vt 0.4375 0.375
vt 0.375 0.253125012
vt 0.3125 0.253125012
vt 0.375 0.375
vt 0.3125 0.375
vt 0.5625 0.375
vt 0.5 0.375
vt 0.5625 0.253125012
vt 0.5 0.253125012
vt 0.4375 0.253125012
vt 0.4375 0.375
vt 0.5 0.253125012
vt 0.5 0.375
vt 0.623437524 0.131249994
vt 0.565625012 0.131249994
vt 0.623437524 0.243750006
vt 0.565625012 0.243750006
vt 0.623437524 0.131249994
vt 0.565625012 0.131249994
vt 0.623437524 0.243750006
vt 0.565625012 0.243750006
vt 0.375 0.065624997
vt 0.4375 0.065624997
vt 0.375 0.21875
vt 0.4375 0.21875
vt 0.375 0.065624997
vt 0.3125 0.065624997
vt 0.375 0.21875
vt 0.3125 0.21875
vt 0.5625 0.21875
vt 0.5 0.21875
vt 0.5625 0.065624997
vt 0.5 0.065624997
vt 0.4375 0.21875
vt 0.5 0.21875
vt 0.4375 0.065624997
vt 0.5 0.065624997
vt 0.779687524 0.215625003
vt 0.720312476 0.215625003
vt 0.779687524 0.0625
vt 0.720312476 0.0625
vt 0.621874988 0.125
vt 0.614062488 0.125
vt 0.620312512 0.131249994
vt 0.567187488 0.125
vt 0.568750024 0.131249994
vt 0.564062476 0.125
vt 0.564062476 0.131249994
vt 0.564062476 0.246875003
vt 0.568750024 0.240624994
vt 0.623437524 0.246875003
vt 0.620312512 0.240624994
vt 0.623437524 0.212500006
vt 0.623437524 0.131249994
vt 0.623437524 0.125
vt 0.564062476 0.065624997
vt 0.623437524 0.065624997
vt 0.623437524 0.00312500005
vt 0.564062476 0.00312500005
vt 0.623437524 0.0593749993
vt 0.564062476 0.0593749993
vt 0.471883416 0.00295897527
vt 0.503133357 0.0592089742
vt 0.562508404 0.0592089742
vt 0.471883416 0.0592089742
vt 0.562508404 0.00295897527
vt 0.779687524 0.00312500005
vt 0.779687524 0.0593749993
vt 0.720312476 0.00312500005
vt 0.720312476 0.0593749993
vt 0.626627743 0.0596198849
vt 0.717252731 0.0596198849
vt 0.626627743 0.00336988922
vt 0.717252731 0.00336988922
vt 0.435937494 0.121875003
vt 0.376562506 0.096874997
vt 0.376562506 0.121875003
vt 0.435937494 0.096874997
vt 0.498437494 0.090625003
vt 0.498437494 0.065624997
vt 0.439062506 0.090625003
vt 0.439062506 0.065624997
vt 0.501562476 0.065624997
vt 0.501562476 0.090625003
vt 0.560937524 0.065624997
vt 0.560937524 0.090625003
vt 0.373437494 0.090625003
vt 0.373437494 0.065624997
vt 0.314062506 0.090625003
vt 0.314062506 0.065624997
vt 0.435937494 0.065624997
vt 0.376562506 0.065624997
vt 0.376562506 0.090625003
vt 0.435937494 0.090625003
vn -0 0 -1
vn -0 0 -1
vn -0 0 -1
vn -0 0 -1
vn -0 0 1
vn -0 0 1
vn -0 0 1
vn -0 0 1
vn -0 -1 0
vn -0 -1 0
vn -0 -1 0
vn -0 -1 0
vn 1 0 0
vn 1 0 0
vn 1 0 0
vn 1 0 0
vn -0 1 0
vn -0 1 0
vn -0 1 0
vn -0 1 0
vn -1 0 0
vn -1 0 0
vn -1 0 0
vn -1 0 0
vn -0 0 -1
vn -0 0 -1
vn -0 0 -1
vn -0 0 -1
vn -0 0 1
vn -0 0 1
vn -0 0 1
vn -0 0 1
vn -0 -1 0
vn -0 -1 0
vn -0 -1 0
vn -0 -1 0
vn 1 0 0
vn 1 0 0
vn 1 0 0
vn 1 0 0
vn -0 1 0
vn -0 1 0
vn -0 1 0
vn -0 1 0
vn -1 0 0
vn -1 0 0
vn -1 0 0
vn -1 0 0
vn -0 0 -1
vn -0 0 -1
vn -0 0 -1
vn -0 0 -1
vn -0 0 1
vn -0 0 1
vn -0 0 1
vn -0 0 1
vn -0 -1 0
vn -0 -1 0
vn -0 -1 0
vn -0 -1 0
vn 1 0 0
vn 1 0 0
vn 1 0 0
vn 1 0 0
vn -0 1 0
vn -0 1 0
vn -0 1 0
vn -0 1 0
vn -1 0 0
vn -1 0 0
vn -1 0 0
vn -1 0 0
vn -0 0 -1
vn -0 0 -1
vn -0 0 -1
vn -0 0 -1
vn -0 0 1
vn -0 0 1
vn -0 0 1
vn -0 0 1
vn -0 0 1
vn -0 0 1
vn -0 0 1
vn -0 0 1
vn -0 0 1
vn -0 0 1
vn -0 0 1
vn -0 0 1
vn -0 0 1
vn -0 0 1
vn -0 0 1
vn -0 0 1
vn -0 -1 0
vn -0 -1 0
vn -0 -1 0
vn -0 -1 0
vn 1 0 0
vn 1 0 0
vn 1 0 0
vn 1 0 0
vn 1 0 0
vn -0 1 0
vn -0 1 0
vn -0 1 0
vn -0 1 0
vn -1 0 0
vn -1 0 0
vn -1 0 0
vn -1 0 0
vn -0 0 1
vn -0 0 1
vn -0 0 1
vn -0 0 1
vn 1 0 0
vn 1 0 0
vn 1 0 0
vn 1 0 0
vn -0 1 0
vn -0 1 0
vn -0 1 0
vn -0 1 0
vn -1 0 0
vn -1 0 0
vn -1 0 0
vn -1 0 0
vn -0 -1 0
vn -0 -1 0
vn -0 -1 0
vn -0 -1 0
f 180/180/180 179/179/179 178/178/178
f 181/181/181 179/179/179 180/180/180
f 184/184/184 183/183/183 182/182/182
f 185/185/185 183/183/183 184/184/184
f 188/188/188 187/187/187 186/186/186
f 189/189/189 187/187/187 188/188/188
f 192/192/192 191/191/191 190/190/190
f 193/193/193 191/191/191 192/192/192
f 196/196/196 195/195/195 194/194/194
f 197/197/197 195/195/195 196/196/196
f 200/200/200 199/199/199 198/198/198
f 200/200/200 201/201/201 199/199/199
f 204/204/204 203/203/203 202/202/202
f 204/204/204 205/205/205 203/203/203
f 208/208/208 207/207/207 206/206/206
f 208/208/208 209/209/209 207/207/207
f 212/212/212 211/211/211 210/210/210
f 213/213/213 211/211/211 212/212/212
f 216/216/216 215/215/215 214/214/214
f 216/216/216 217/217/217 215/215/215
f 220/220/220 219/219/219 218/218/218
f 220/220/220 221/221/221 219/219/219
f 224/224/224 223/223/223 222/222/222
f 225/225/225 223/223/223 224/224/224
f 228/228/228 227/227/227 226/226/226
f 228/228/228 229/229/229 227/227/227
f 232/232/232 231/231/231 230/230/230
f 232/232/232 233/233/233 231/231/231
f 236/236/236 235/235/235 234/234/234
f 236/236/236 237/237/237 235/235/235
f 240/240/240 239/239/239 238/238/238
f 240/240/240 241/241/241 239/239/239
f 244/244/244 243/243/243 242/242/242
f 244/244/244 245/245/245 243/243/243
f 248/248/248 247/247/247 246/246/246
f 248/248/248 249/249/249 247/247/247
f 252/252/252 251/251/251 250/250/250
f 252/252/252 253/253/253 251/251/251
f 256/256/256 255/255/255 254/254/254
f 255/255/255 256/256/256 257/257/257
f 258/258/258 257/257/257 256/256/256
f 257/257/257 258/258/258 259/259/259
f 260/260/260 259/259/259 258/258/258
f 261/261/261 260/260/260 258/258/258
f 258/258/258 262/262/262 261/261/261
f 261/261/261 262/262/262 263/263/263
f 264/264/264 263/263/263 262/262/262
f 264/264/264 256/256/256 265/265/265
f 265/265/265 263/263/263 264/264/264
f 266/266/266 265/265/265 256/256/256
f 256/256/256 254/254/254 266/266/266
f 267/267/267 266/266/266 254/254/254
f 268/268/268 257/257/257 259/259/259
f 268/268/268 255/255/255 257/257/257
f 254/254/254 255/255/255 269/269/269
f 268/268/268 269/269/269 255/255/255
f 269/269/269 267/267/267 254/254/254
f 272/272/272 271/271/271 270/270/270
f 273/273/273 271/271/271 272/272/272
f 276/276/276 275/275/275 274/274/274
f 277/277/277 274/274/274 275/275/275
f 278/278/278 276/276/276 274/274/274
f 281/281/281 280/280/280 279/279/279
f 281/281/281 282/282/282 280/280/280
f 285/285/285 284/284/284 283/283/283
f 286/286/286 284/284/284 285/285/285
f 289/289/289 288/288/288 287/287/287
f 287/287/287 288/288/288 290/290/290
f 293/293/293 292/292/292 291/291/291
f 293/293/293 294/294/294 292/292/292
f 297/297/297 296/296/296 295/295/295
f 297/297/297 298/298/298 296/296/296
f 301/301/301 300/300/300 299/299/299
f 301/301/301 302/302/302 300/300/300
f 305/305/305 304/304/304 303/303/303
f 305/305/305 303/303/303 306/306/306
g hand_left
v -0.109233148 0.0413385853 -0.0118109854
v -0.191910326 0.0413385853 -0.0118109854
v -0.109233148 -0.0413385853 -0.0118109854
v -0.191910326 -0.0413385853 -0.0118109854
v -0.191910326 -0.0413385853 0.0236220881
v -0.191910326 0.0413385853 0.0236220881
v -0.109233148 -0.0413385853 0.0236220881
v -0.109233148 0.0413385853 0.0236220881
v -0.109233148 -0.0413385853 -0.0118109854
v -0.191910326 -0.0413385853 -0.0118109854
v -0.109233148 -0.0413385853 0.0236220881
v -0.191910326 -0.0413385853 0.0236220881
v -0.109233148 -0.0413385853 0.0236220881
v -0.109233148 0.0413385853 0.0236220881
v -0.109233148 -0.0413385853 -0.0118109854
v -0.109233148 0.0413385853 -0.0118109854
v -0.109233148 0.0413385853 0.0236220881
v -0.191910326 0.0413385853 0.0236220881
v -0.109233148 0.0413385853 -0.0118109854
v -0.191910326 0.0413385853 -0.0118109854
v -0.191910326 -0.0413385853 0.0236220881
v -0.191910326 -0.0413385853 -0.0118109854
v -0.191910326 0.0413385853 0.0236220881
v -0.191910326 0.0413385853 -0.0118109854
v -0.103327639 0.047244098 0.0236220881
v -0.197815835 0.047244098 0.0236220881
v -0.103327639 -0.047244098 0.0236220881
v -0.197815835 -0.047244098 0.0236220881
v -0.103327639 0.047244098 0.14173232
v -0.103327639 -0.047244098 0.14173232
v -0.197815835 0.047244098 0.14173232
v -0.197815835 -0.047244098 0.14173232
v -0.197815835 -0.047244098 0.0236220881
v -0.197815835 -0.047244098 0.14173232
v -0.103327639 -0.047244098 0.0236220881
v -0.103327639 -0.047244098 0.14173232
v -0.103327639 0.047244098 0.0236220881
v -0.103327639 -0.047244098 0.0236220881
v -0.103327639 0.047244098 0.14173232
v -0.103327639 -0.047244098 0.14173232
v -0.103327639 0.047244098 0.14173232
v -0.197815835 0.047244098 0.14173232
v -0.103327639 0.047244098 0.0236220881
v -0.197815835 0.047244098 0.0236220881
v -0.197815835 0.047244098 0.0236220881
v -0.197815835 0.047244098 0.14173232
v -0.197815835 -0.047244098 0.0236220881
v -0.197815835 -0.047244098 0.14173232
v -0.103327639 0.047244098 -0.141732246
v -0.197815835 0.047244098 -0.141732246
v -0.103327639 -0.047244098 -0.141732246
v -0.197815835 -0.047244098 -0.141732246
v -0.103327639 -0.047244098 -0.0118109854
v -0.197815835 -0.047244098 -0.0118109854
v -0.103327639 0.047244098 -0.0118109854
v -0.197815835 0.047244098 -0.0118109854
v -0.103327639 -0.047244098 -0.141732246
v -0.197815835 -0.047244098 -0.141732246
v -0.103327639 -0.047244098 -0.0118109854
v -0.197815835 -0.047244098 -0.0118109854
v -0.103327639 0.047244098 -0.141732246
v -0.103327639 -0.047244098 -0.141732246
v -0.103327639 0.047244098 -0.0118109854
v -0.103327639 -0.047244098 -0.0118109854
v -0.103327639 0.047244098 -0.0118109854
v -0.197815835 0.047244098 -0.0118109854
v -0.103327639 0.047244098 -0.141732246
v -0.197815835 0.047244098 -0.141732246
v -0.197815835 0.047244098 -0.0118109854
v -0.197815835 -0.047244098 -0.0118109854
v -0.197815835 0.047244098 -0.141732246
v -0.197815835 -0.047244098 -0.141732246
vt 0.310937494 0.131249994
vt 0.253125012 0.131249994
vt 0.310937494 0.243750006
vt 0.253125012 0.243750006
vt 0.253125012 0.131249994
vt 0.253125012 0.243750006
vt 0.310937494 0.131249994
vt 0.310937494 0.243750006
vt 0.125 0.171875
vt 0.0625 0.171875
vt 0.125 0.21875
vt 0.0625 0.21875
vt 0.125 0.21875
vt 0.1875 0.21875
vt 0.125 0.171875
vt 0.1875 0.171875
vt 0.1875 0.21875
vt 0.25 0.21875
vt 0.1875 0.171875
vt 0.25 0.171875
vt 0.0625 0.21875
vt 0.0625 0.171875
vt 0 0.21875
vt 0 0.171875
vt 0.310937494 0.131249994
vt 0.253125012 0.131249994
vt 0.310937494 0.243750006
vt 0.253125012 0.243750006
vt 0.310937494 0.371874988
vt 0.310937494 0.253125012
vt 0.251562506 0.371874988
vt 0.251562506 0.253125012
vt 0.0625 0.21875
vt 0.0625 0.375
vt 0.125 0.21875
vt 0.125 0.375
vt 0.185937494 0.21875
vt 0.125 0.21875
vt 0.185937494 0.375
vt 0.125 0.375
vt 0.185937494 0.375
vt 0.248437494 0.375
vt 0.185937494 0.21875
vt 0.248437494 0.21875
vt 0 0.21875
vt 0 0.375
vt 0.0625 0.21875
vt 0.0625 0.375
vt 0.310937494 0.131249994
vt 0.253125012 0.131249994
vt 0.310937494 0.243750006
vt 0.253125012 0.243750006
vt 0.310937494 0.131249994
vt 0.253125012 0.131249994
vt 0.310937494 0.243750006
vt 0.253125012 0.243750006
vt 0.125 0
vt 0.0625 0
vt 0.125 0.171875
vt 0.0625 0.171875
vt 0.1875 0
vt 0.125 0
vt 0.1875 0.171875
vt 0.125 0.171875
vt 0.1875 0.171875
vt 0.25 0.171875
vt 0.1875 0
vt 0.25 0
vt 0 0.171875
vt 0.0625 0.171875
vt 0 0
vt 0.0625 0
vn -0 0 -1
vn -0 0 -1
vn -0 0 -1
vn -0 0 -1
vn -0 0 1
vn -0 0 1
vn -0 0 1
vn -0 0 1
vn -0 -1 0
vn -0 -1 0
vn -0 -1 0
vn -0 -1 0
vn 1 0 0
vn 1 0 0
vn 1 0 0
vn 1 0 0
vn -0 1 0
vn -0 1 0
vn -0 1 0
vn -0 1 0
vn -1 0 0
vn -1 0 0
vn -1 0 0
vn -1 0 0
vn -0 0 -1
vn -0 0 -1
vn -0 0 -1
vn -0 0 -1
vn -0 0 1
vn -0 0 1
vn -0 0 1
vn -0 0 1
vn -0 -1 0
vn -0 -1 0
vn -0 -1 0
vn -0 -1 0
vn 1 0 0
vn 1 0 0
vn 1 0 0
vn 1 0 0
vn -0 1 0
vn -0 1 0
vn -0 1 0
vn -0 1 0
vn -1 0 0
vn -1 0 0
vn -1 0 0
vn -1 0 0
vn -0 0 -1
vn -0 0 -1
vn -0 0 -1
vn -0 0 -1
vn -0 0 1
vn -0 0 1
vn -0 0 1
vn -0 0 1
vn -0 -1 0
vn -0 -1 0
vn -0 -1 0
vn -0 -1 0
vn 1 0 0
vn 1 0 0
vn 1 0 0
vn 1 0 0
vn -0 1 0
vn -0 1 0
vn -0 1 0
vn -0 1 0
vn -1 0 0
vn -1 0 0
vn -1 0 0
vn -1 0 0
f 309/309/309 308/308/308 307/307/307
f 310/310/310 308/308/308 309/309/309
f 313/313/313 312/312/312 311/311/311
f 314/314/314 312/312/312 313/313/313
f 317/317/317 316/316/316 315/315/315
f 318/318/318 316/316/316 317/317/317
f 321/321/321 320/320/320 319/319/319
f 322/322/322 320/320/320 321/321/321
f 325/325/325 324/324/324 323/323/323
f 326/326/326 324/324/324 325/325/325
f 329/329/329 328/328/328 327/327/327
f 329/329/329 330/330/330 328/328/328
f 333/333/333 332/332/332 331/331/331
f 333/333/333 334/334/334 332/332/332
f 337/337/337 336/336/336 335/335/335
f 337/337/337 338/338/338 336/336/336
f 341/341/341 340/340/340 339/339/339
f 342/342/342 340/340/340 341/341/341
f 345/345/345 344/344/344 343/343/343
f 345/345/345 346/346/346 344/344/344
f 349/349/349 348/348/348 347/347/347
f 349/349/349 350/350/350 348/348/348
f 353/353/353 352/352/352 351/351/351
f 354/354/354 352/352/352 353/353/353
f 357/357/357 356/356/356 355/355/355
f 357/357/357 358/358/358 356/356/356
f 361/361/361 360/360/360 359/359/359
f 361/361/361 362/362/362 360/360/360
f 365/365/365 364/364/364 363/363/363
f 365/365/365 366/366/366 364/364/364
f 369/369/369 368/368/368 367/367/367
f 369/369/369 370/370/370 368/368/368
f 373/373/373 372/372/372 371/371/371
f 373/373/373 374/374/374 372/372/372
f 377/377/377 376/376/376 375/375/375
f 377/377/377 378/378/378 376/376/376
g hand_right
v 0.191586599 0.0413385853 -0.0118109854
v 0.108909413 0.0413385853 -0.0118109854
v 0.191586599 -0.0413385853 -0.0118109854
v 0.108909413 -0.0413385853 -0.0118109854
v 0.108909413 -0.0413385853 0.0236220881
v 0.108909413 0.0413385853 0.0236220881
v 0.191586599 -0.0413385853 0.0236220881
v 0.191586599 0.0413385853 0.0236220881
v 0.191586599 -0.0413385853 -0.0118109854
v 0.108909413 -0.0413385853 -0.0118109854
v 0.191586599 -0.0413385853 0.0236220881
v 0.108909413 -0.0413385853 0.0236220881
v 0.191586599 -0.0413385853 0.0236220881
v 0.191586599 0.0413385853 0.0236220881
v 0.191586599 -0.0413385853 -0.0118109854
v 0.191586599 0.0413385853 -0.0118109854
v 0.191586599 0.0413385853 0.0236220881
v 0.108909413 0.0413385853 0.0236220881
v 0.191586599 0.0413385853 -0.0118109854
v 0.108909413 0.0413385853 -0.0118109854
v 0.108909413 -0.0413385853 0.0236220881
v 0.108909413 -0.0413385853 -0.0118109854
v 0.108909413 0.0413385853 0.0236220881
v 0.108909413 0.0413385853 -0.0118109854
v 0.197492108 0.047244098 0.0236220881
v 0.103003912 0.047244098 0.0236220881
v 0.197492108 -0.047244098 0.0236220881
v 0.103003912 -0.047244098 0.0236220881
v 0.197492108 0.047244098 0.14173232
v 0.197492108 -0.047244098 0.14173232
v 0.103003912 0.047244098 0.14173232
v 0.103003912 -0.047244098 0.14173232
v 0.103003912 -0.047244098 0.0236220881
v 0.103003912 -0.047244098 0.14173232
v 0.197492108 -0.047244098 0.0236220881
v 0.197492108 -0.047244098 0.14173232
v 0.197492108 0.047244098 0.0236220881
v 0.197492108 -0.047244098 0.0236220881
v 0.197492108 0.047244098 0.14173232
v 0.197492108 -0.047244098 0.14173232
v 0.197492108 0.047244098 0.14173232
v 0.103003912 0.047244098 0.14173232
v 0.197492108 0.047244098 0.0236220881
v 0.103003912 0.047244098 0.0236220881
v 0.103003912 0.047244098 0.0236220881
v 0.103003912 0.047244098 0.14173232
v 0.103003912 -0.047244098 0.0236220881
v 0.103003912 -0.047244098 0.14173232
v 0.197492108 0.047244098 -0.141732246
v 0.103003912 0.047244098 -0.141732246
v 0.197492108 -0.047244098 -0.141732246
v 0.103003912 -0.047244098 -0.141732246
v 0.197492108 -0.047244098 -0.0118109854
v 0.103003912 -0.047244098 -0.0118109854
v 0.197492108 0.047244098 -0.0118109854
v 0.103003912 0.047244098 -0.0118109854
v 0.197492108 -0.047244098 -0.141732246
v 0.103003912 -0.047244098 -0.141732246
v 0.197492108 -0.047244098 -0.0118109854
v 0.103003912 -0.047244098 -0.0118109854
v 0.197492108 0.047244098 -0.141732246
v 0.197492108 -0.047244098 -0.141732246
v 0.197492108 0.047244098 -0.0118109854
v 0.197492108 -0.047244098 -0.0118109854
v 0.197492108 0.047244098 -0.0118109854
v 0.103003912 0.047244098 -0.0118109854
v 0.197492108 0.047244098 -0.141732246
v 0.103003912 0.047244098 -0.141732246
v 0.103003912 0.047244098 -0.0118109854
v 0.103003912 -0.047244098 -0.0118109854
v 0.103003912 0.047244098 -0.141732246
v 0.103003912 -0.047244098 -0.141732246
vt 0.310937494 0.131249994
vt 0.253125012 0.131249994
vt 0.310937494 0.243750006
vt 0.253125012 0.243750006
vt 0.253125012 0.131249994
vt 0.253125012 0.243750006
vt 0.310937494 0.131249994
vt 0.310937494 0.243750006
vt 0.0625 0.171875
vt 0.125 0.171875
vt 0.0625 0.21875
vt 0.125 0.21875
vt 0.0625 0.21875
vt 0 0.21875
vt 0.0625 0.171875
vt 0 0.171875
vt 0.25 0.21875
vt 0.1875 0.21875
vt 0.25 0.171875
vt 0.1875 0.171875
vt 0.125 0.21875
vt 0.125 0.171875
vt 0.1875 0.21875
vt 0.1875 0.171875
vt 0.310937494 0.131249994
vt 0.253125012 0.131249994
vt 0.310937494 0.243750006
vt 0.253125012 0.243750006
vt 0.310937494 0.371874988
vt 0.310937494 0.253125012
vt 0.251562506 0.371874988
vt 0.251562506 0.253125012
vt 0.125 0.21875
vt 0.125 0.375
vt 0.0625 0.21875
vt 0.0625 0.375
vt -0 0.21875
vt 0.0625 0.21875
vt -0 0.375
vt 0.0625 0.375
vt 0.248437494 0.375
vt 0.185937494 0.375
vt 0.248437494 0.21875
vt 0.185937494 0.21875
vt 0.125 0.21875
vt 0.125 0.375
vt 0.185937494 0.21875
vt 0.185937494 0.375
vt 0.310937494 0.131249994
vt 0.253125012 0.131249994
vt 0.310937494 0.243750006
vt 0.253125012 0.243750006
vt 0.310937494 0.131249994
vt 0.253125012 0.131249994
vt 0.310937494 0.243750006
vt 0.253125012 0.243750006
vt 0.0625 0
vt 0.125 0
vt 0.0625 0.171875
vt 0.125 0.171875
vt 0 0
vt 0.0625 0
vt 0 0.171875
vt 0.0625 0.171875
vt 0.25 0.171875
vt 0.1875 0.171875
vt 0.25 0
vt 0.1875 0
vt 0.1875 0.171875
vt 0.125 0.171875
vt 0.1875 0
vt 0.125 0
vn -0 0 -1
vn -0 0 -1
vn -0 0 -1
vn -0 0 -1
vn -0 0 1
vn -0 0 1
vn -0 0 1
vn -0 0 1
vn -0 -1 0
vn -0 -1 0
vn -0 -1 0
vn -0 -1 0
vn 1 0 0
vn 1 0 0
vn 1 0 0
vn 1 0 0
vn -0 1 0
vn -0 1 0
vn -0 1 0
vn -0 1 0
vn -1 0 0
vn -1 0 0
vn -1 0 0
vn -1 0 0
vn -0 0 -1
vn -0 0 -1
vn -0 0 -1
vn -0 0 -1
vn -0 0 1
vn -0 0 1
vn -0 0 1
vn -0 0 1
vn -0 -1 0
vn -0 -1 0
vn -0 -1 0
vn -0 -1 0
vn 1 0 0
vn 1 0 0
vn 1 0 0
vn 1 0 0
vn -0 1 0
vn -0 1 0
vn -0 1 0
vn -0 1 0
vn -1 0 0
vn -1 0 0
vn -1 0 0
vn -1 0 0
vn -0 0 -1
vn -0 0 -1
vn -0 0 -1
vn -0 0 -1
vn -0 0 1
vn -0 0 1
vn -0 0 1
vn -0 0 1
vn -0 -1 0
vn -0 -1 0
vn -0 -1 0
vn -0 -1 0
vn 1 0 0
vn 1 0 0
vn 1 0 0
vn 1 0 0
vn -0 1 0
vn -0 1 0
vn -0 1 0
vn -0 1 0
vn -1 0 0
vn -1 0 0
vn -1 0 0
vn -1 0 0
f 381/381/381 380/380/380 379/379/379
f 382/382/382 380/380/380 381/381/381
f 385/385/385 384/384/384 383/383/383
f 386/386/386 384/384/384 385/385/385
f 389/389/389 388/388/388 387/387/387
f 390/390/390 388/388/388 389/389/389
f 393/393/393 392/392/392 391/391/391
f 394/394/394 392/392/392 393/393/393
f 397/397/397 396/396/396 395/395/395
f 398/398/398 396/396/396 397/397/397
f 401/401/401 400/400/400 399/399/399
f 401/401/401 402/402/402 400/400/400
f 405/405/405 404/404/404 403/403/403
f 405/405/405 406/406/406 404/404/404
f 409/409/409 408/408/408 407/407/407
f 409/409/409 410/410/410 408/408/408
f 413/413/413 412/412/412 411/411/411
f 414/414/414 412/412/412 413/413/413
f 417/417/417 416/416/416 415/415/415
f 417/417/417 418/418/418 416/416/416
f 421/421/421 420/420/420 419/419/419
f 421/421/421 422/422/422 420/420/420
f 425/425/425 424/424/424 423/423/423
f 426/426/426 424/424/424 425/425/425
f 429/429/429 428/428/428 427/427/427
f 429/429/429 430/430/430 428/428/428
f 433/433/433 432/432/432 431/431/431
f 433/433/433 434/434/434 432/432/432
f 437/437/437 436/436/436 435/435/435
f 437/437/437 438/438/438 436/436/436
f 441/441/441 440/440/440 439/439/439
f 441/441/441 442/442/442 440/440/440
f 445/445/445 444/444/444 443/443/443
f 445/445/445 446/446/446 444/444/444
f 449/449/449 448/448/448 447/447/447
f 449/449/449 450/450/450 448/448/448
