g hand_left
v -0.109233148 0.0413385853 -0.0118109854
v -0.191910326 0.0413385853 -0.0118109854
v -0.109233148 -0.0413385853 -0.0118109854
v -0.191910326 -0.0413385853 -0.0118109854
v -0.191910326 -0.0413385853 0.0236220881
v -0.191910326 0.0413385853 0.0236220881
v -0.109233148 -0.0413385853 0.0236220881
v -0.109233148 0.0413385853 0.0236220881
v -0.109233148 -0.0413385853 -0.0118109854
v -0.191910326 -0.0413385853 -0.0118109854
v -0.109233148 -0.0413385853 0.0236220881
v -0.191910326 -0.0413385853 0.0236220881
v -0.109233148 -0.0413385853 0.0236220881
v -0.109233148 0.0413385853 0.0236220881
v -0.109233148 -0.0413385853 -0.0118109854
v -0.109233148 0.0413385853 -0.0118109854
v -0.109233148 0.0413385853 0.0236220881
v -0.191910326 0.0413385853 0.0236220881
v -0.109233148 0.0413385853 -0.0118109854
v -0.191910326 0.0413385853 -0.0118109854
v -0.191910326 -0.0413385853 0.0236220881
v -0.191910326 -0.0413385853 -0.0118109854
v -0.191910326 0.0413385853 0.0236220881
v -0.191910326 0.0413385853 -0.0118109854
v -0.103327639 0.047244098 0.0236220881
v -0.197815835 0.047244098 0.0236220881
v -0.103327639 -0.047244098 0.0236220881
v -0.197815835 -0.047244098 0.0236220881
v -0.103327639 0.047244098 0.14173232
v -0.103327639 -0.047244098 0.14173232
v -0.197815835 0.047244098 0.14173232
v -0.197815835 -0.047244098 0.14173232
v -0.197815835 -0.047244098 0.0236220881
v -0.197815835 -0.047244098 0.14173232
v -0.103327639 -0.047244098 0.0236220881
v -0.103327639 -0.047244098 0.14173232
v -0.103327639 0.047244098 0.0236220881
v -0.103327639 -0.047244098 0.0236220881
v -0.103327639 0.047244098 0.14173232
v -0.103327639 -0.047244098 0.14173232
v -0.103327639 0.047244098 0.14173232
v -0.197815835 0.047244098 0.14173232
v -0.103327639 0.047244098 0.0236220881
v -0.197815835 0.047244098 0.0236220881
v -0.197815835 0.047244098 0.0236220881
v -0.197815835 0.047244098 0.14173232
v -0.197815835 -0.047244098 0.0236220881
v -0.197815835 -0.047244098 0.14173232
v -0.103327639 0.047244098 -0.141732246
v -0.197815835 0.047244098 -0.141732246
v -0.103327639 -0.047244098 -0.141732246
v -0.197815835 -0.047244098 -0.141732246
v -0.103327639 -0.047244098 -0.0118109854
v -0.197815835 -0.047244098 -0.0118109854
v -0.103327639 0.047244098 -0.0118109854
v -0.197815835 0.047244098 -0.0118109854
v -0.103327639 -0.047244098 -0.141732246
v -0.197815835 -0.047244098 -0.141732246
v -0.103327639 -0.047244098 -0.0118109854
v -0.197815835 -0.047244098 -0.0118109854
v -0.103327639 0.047244098 -0.141732246
v -0.103327639 -0.047244098 -0.141732246
v -0.103327639 0.047244098 -0.0118109854
v -0.103327639 -0.047244098 -0.0118109854
v -0.103327639 0.047244098 -0.0118109854
v -0.197815835 0.047244098 -0.0118109854
v -0.103327639 0.047244098 -0.141732246
v -0.197815835 0.047244098 -0.141732246
v -0.197815835 0.047244098 -0.0118109854
v -0.197815835 -0.047244098 -0.0118109854
v -0.197815835 0.047244098 -0.141732246
v -0.197815835 -0.047244098 -0.141732246
vt 0.310937494 0.131249994
vt 0.253125012 0.131249994
vt 0.310937494 0.243750006
vt 0.253125012 0.243750006
vt 0.253125012 0.131249994
vt 0.253125012 0.243750006
vt 0.310937494 0.131249994
vt 0.310937494 0.243750006
vt 0.125 0.171875
vt 0.0625 0.171875
vt 0.125 0.21875
vt 0.0625 0.21875
vt 0.125 0.21875
vt 0.1875 0.21875
vt 0.125 0.171875
vt 0.1875 0.171875
vt 0.1875 0.21875
vt 0.25 0.21875
vt 0.1875 0.171875
vt 0.25 0.171875
vt 0.0625 0.21875
vt 0.0625 0.171875
vt 0 0.21875
vt 0 0.171875
vt 0.310937494 0.131249994
vt 0.253125012 0.131249994
vt 0.310937494 0.243750006
vt 0.253125012 0.243750006
vt 0.310937494 0.371874988
vt 0.310937494 0.253125012
vt 0.251562506 0.371874988
vt 0.251562506 0.253125012
vt 0.0625 0.21875
vt 0.0625 0.375
vt 0.125 0.21875
vt 0.125 0.375
vt 0.185937494 0.21875
vt 0.125 0.21875
vt 0.185937494 0.375
vt 0.125 0.375
vt 0.185937494 0.375
vt 0.248437494 0.375
vt 0.185937494 0.21875
vt 0.248437494 0.21875
vt 0 0.21875
vt 0 0.375
vt 0.0625 0.21875
vt 0.0625 0.375
vt 0.310937494 0.131249994
vt 0.253125012 0.131249994
vt 0.310937494 0.243750006
vt 0.253125012 0.243750006
vt 0.310937494 0.131249994
vt 0.253125012 0.131249994
vt 0.310937494 0.243750006
vt 0.253125012 0.243750006
vt 0.125 0
vt 0.0625 0
vt 0.125 0.171875
vt 0.0625 0.171875
vt 0.1875 0
vt 0.125 0
vt 0.1875 0.171875
vt 0.125 0.171875
vt 0.1875 0.171875
vt 0.25 0.171875
vt 0.1875 0
vt 0.25 0
vt 0 0.171875
vt 0.0625 0.171875
vt 0 0
vt 0.0625 0
vn -0 0 -1
vn -0 0 -1
vn -0 0 -1
vn -0 0 -1
vn -0 0 1
vn -0 0 1
vn -0 0 1
vn -0 0 1
vn -0 -1 0
vn -0 -1 0
vn -0 -1 0
vn -0 -1 0
vn 1 0 0
vn 1 0 0
vn 1 0 0
vn 1 0 0
vn -0 1 0
vn -0 1 0
vn -0 1 0
vn -0 1 0
vn -1 0 0
vn -1 0 0
vn -1 0 0
vn -1 0 0
vn -0 0 -1
vn -0 0 -1
vn -0 0 -1
vn -0 0 -1
vn -0 0 1
vn -0 0 1
vn -0 0 1
vn -0 0 1
vn -0 -1 0
vn -0 -1 0
vn -0 -1 0
vn -0 -1 0
vn 1 0 0
vn 1 0 0
vn 1 0 0
vn 1 0 0
vn -0 1 0
vn -0 1 0
vn -0 1 0
vn -0 1 0
vn -1 0 0
vn -1 0 0
vn -1 0 0
vn -1 0 0
vn -0 0 -1
vn -0 0 -1
vn -0 0 -1
vn -0 0 -1
vn -0 0 1
vn -0 0 1
vn -0 0 1
vn -0 0 1
vn -0 -1 0
vn -0 -1 0
vn -0 -1 0
vn -0 -1 0
vn 1 0 0
vn 1 0 0
vn 1 0 0
vn 1 0 0
vn -0 1 0
vn -0 1 0
vn -0 1 0
vn -0 1 0
vn -1 0 0
vn -1 0 0
vn -1 0 0
vn -1 0 0
g hand_left_0
f 3/3/3 2/2/2 1/1/1
f 4/4/4 2/2/2 3/3/3
f 7/7/7 6/6/6 5/5/5
f 8/8/8 6/6/6 7/7/7
f 11/11/11 10/10/10 9/9/9
f 12/12/12 10/10/10 11/11/11
f 15/15/15 14/14/14 13/13/13
f 16/16/16 14/14/14 15/15/15
f 19/19/19 18/18/18 17/17/17
f 20/20/20 18/18/18 19/19/19
f 23/23/23 22/22/22 21/21/21
f 23/23/23 24/24/24 22/22/22
f 27/27/27 26/26/26 25/25/25
f 27/27/27 28/28/28 26/26/26
f 31/31/31 30/30/30 29/29/29
f 31/31/31 32/32/32 30/30/30
f 35/35/35 34/34/34 33/33/33
f 36/36/36 34/34/34 35/35/35
f 39/39/39 38/38/38 37/37/37
f 39/39/39 40/40/40 38/38/38
f 43/43/43 42/42/42 41/41/41
f 43/43/43 44/44/44 42/42/42
f 47/47/47 46/46/46 45/45/45
f 48/48/48 46/46/46 47/47/47
f 51/51/51 50/50/50 49/49/49
f 51/51/51 52/52/52 50/50/50
f 55/55/55 54/54/54 53/53/53
f 55/55/55 56/56/56 54/54/54
f 59/59/59 58/58/58 57/57/57
f 59/59/59 60/60/60 58/58/58
f 63/63/63 62/62/62 61/61/61
f 63/63/63 64/64/64 62/62/62
f 67/67/67 66/66/66 65/65/65
f 67/67/67 68/68/68 66/66/66
f 71/71/71 70/70/70 69/69/69
f 71/71/71 72/72/72 70/70/70
