g trunk
v -0.0787401646 -0.0270269252 -0.0393700823
v 0.0787401646 0.209193558 -0.0393700823
v -0.0787401646 0.209193558 -0.0393700823
v 0.0787401646 -0.0270269252 -0.0393700823
v -0.0787401646 -0.0270269252 0.0393700823
v 0.0787401646 0.209193558 0.0393700823
v 0.0787401646 -0.0270269252 0.0393700823
v -0.0787401646 0.209193558 0.0393700823
v -0.0787401646 -0.0270269252 -0.0393700823
v 0.0787401646 -0.0270269252 0.0393700823
v 0.0787401646 -0.0270269252 -0.0393700823
v -0.0787401646 -0.0270269252 0.0393700823
v 0.0787401646 -0.0270269252 -0.0393700823
v 0.0787401646 0.209193558 0.0393700823
v 0.0787401646 0.209193558 -0.0393700823
v 0.0787401646 -0.0270269252 0.0393700823
v 0.0787401646 0.209193558 -0.0393700823
v -0.0787401646 0.209193558 0.0393700823
v -0.0787401646 0.209193558 -0.0393700823
v 0.0787401646 0.209193558 0.0393700823
v -0.0787401646 0.209193558 -0.0393700823
v -0.0787401646 -0.0270269252 0.0393700823
v -0.0787401646 -0.0270269252 -0.0393700823
v -0.0787401646 0.209193558 0.0393700823
vt 0.437516481 0.000215828361
vt 0.31250307 0.374654144
vt 0.437516481 0.374771029
vt 0.312503129 6.41623628E-05
vt 0.500021458 7.20256503E-05
vt 0.62499994 0.374613792
vt 0.62499994 7.20256503E-05
vt 0.500021458 0.374613792
vt 0.562464356 0.49996978
vt 0.437504053 0.374998778
vt 0.437504053 0.49996978
vt 0.562464356 0.374998778
vt 0.312503129 6.41623628E-05
vt 0.250027716 0.374654144
vt 0.31250307 0.374654144
vt 0.250027776 6.41623628E-05
vt 0.437366992 0.499905765
vt 0.31252566 0.375053793
vt 0.31252566 0.499905765
vt 0.437366992 0.375053793
vt 0.437516481 0.374771029
vt 0.500021458 7.20256503E-05
vt 0.437516481 0.000215828361
vt 0.500021458 0.374613792
vn -0 0 -1
vn -0 0 -1
vn -0 0 -1
vn -0 0 -1
vn -0 0 1
vn -0 0 1
vn -0 0 1
vn -0 0 1
vn -0 -1 0
vn -0 -1 0
vn -0 -1 0
vn -0 -1 0
vn 1 0 0
vn 1 0 0
vn 1 0 0
vn 1 0 0
vn -0 1 0
vn -0 1 0
vn -0 1 0
vn -0 1 0
vn -1 0 0
vn -1 0 0
vn -1 0 0
vn -1 0 0
g trunk_0
f 3/3/3 2/2/2 1/1/1
f 4/4/4 1/1/1 2/2/2
f 7/7/7 6/6/6 5/5/5
f 8/8/8 5/5/5 6/6/6
f 11/11/11 10/10/10 9/9/9
f 12/12/12 9/9/9 10/10/10
f 15/15/15 14/14/14 13/13/13
f 16/16/16 13/13/13 14/14/14
f 19/19/19 18/18/18 17/17/17
f 20/20/20 17/17/17 18/18/18
f 23/23/23 22/22/22 21/21/21
f 24/24/24 21/21/21 22/22/22
