g head
v -0.0787401646 -0.0106297154 -0.0787401646
v 0.0787401646 0.146850601 -0.0787401646
v -0.0787401646 0.146850601 -0.0787401646
v 0.0787401646 -0.0106297154 -0.0787401646
v -0.0787401646 -0.0106297154 0.0787401646
v 0.0787401646 0.146850601 0.0787401646
v 0.0787401646 -0.0106297154 0.0787401646
v -0.0787401646 0.146850601 0.0787401646
v -0.0787401646 -0.0106297154 -0.0787401646
v 0.0787401646 -0.0106297154 0.0787401646
v 0.0787401646 -0.0106297154 -0.0787401646
v -0.0787401646 -0.0106297154 0.0787401646
v 0.0787401646 -0.0106297154 -0.0787401646
v 0.0787401646 0.146850601 0.0787401646
v 0.0787401646 0.146850601 -0.0787401646
v 0.0787401646 -0.0106297154 0.0787401646
v 0.0787401646 0.146850601 -0.0787401646
v -0.0787401646 0.146850601 0.0787401646
v -0.0787401646 0.146850601 -0.0787401646
v 0.0787401646 0.146850601 0.0787401646
v -0.0787401646 0.146850601 -0.0787401646
v -0.0787401646 -0.0106297154 0.0787401646
v -0.0787401646 -0.0106297154 -0.0787401646
v -0.0787401646 0.146850601 0.0787401646
vt 0.24935399 0.501809537
vt 0.125423789 0.749156117
vt 0.24935399 0.748931348
vt 0.125423789 0.501809537
vt 0.375834107 0.501557469
vt 0.499326676 0.747026801
vt 0.499597877 0.501557469
vt 0.375667214 0.747026801
vt 0.251392424 0.751355886
vt 0.373837769 0.995262027
vt 0.373837769 0.751355886
vt 0.251392424 0.995262027
vt 0.124351911 0.50064218
vt 1.2696878E-05 0.74933058
vt 0.124145336 0.74933058
vt 0.000219270267 0.50064218
vt 0.249780342 0.750556827
vt 0.126053423 0.99835676
vt 0.249763712 0.99835676
vt 0.126070052 0.750556827
vt 0.250898719 0.74893558
vt 0.374488145 0.501364827
vt 0.250898719 0.50130862
vt 0.374488145 0.74893558
vn -0 0 -1
vn -0 0 -1
vn -0 0 -1
vn -0 0 -1
vn -0 0 1
vn -0 0 1
vn -0 0 1
vn -0 0 1
vn -0 -1 0
vn -0 -1 0
vn -0 -1 0
vn -0 -1 0
vn 1 0 0
vn 1 0 0
vn 1 0 0
vn 1 0 0
vn -0 1 0
vn -0 1 0
vn -0 1 0
vn -0 1 0
vn -1 0 0
vn -1 0 0
vn -1 0 0
vn -1 0 0
g head_0
f 3/3/3 2/2/2 1/1/1
f 2/2/2 4/4/4 1/1/1
f 7/7/7 6/6/6 5/5/5
f 6/6/6 8/8/8 5/5/5
f 11/11/11 10/10/10 9/9/9
f 10/10/10 12/12/12 9/9/9
f 15/15/15 14/14/14 13/13/13
f 14/14/14 16/16/16 13/13/13
f 19/19/19 18/18/18 17/17/17
f 18/18/18 20/20/20 17/17/17
f 23/23/23 22/22/22 21/21/21
f 22/22/22 24/24/24 21/21/21
