g leg_right
v 1.183138 0.068595 2.078741
v 1.010423 0.068595 2.078741
v 1.183138 0.068595 1.906026
v 1.010423 0.068595 1.906026
v 1.010423 0.114296 1.906026
v 1.010423 0.114296 2.078741
v 1.183138 0.114296 1.906026
v 1.183138 0.114296 2.078741
v 1.183138 0.068595 1.906026
v 1.010423 0.068595 1.906026
v 1.183138 0.114296 1.906026
v 1.010423 0.114296 1.906026
v 1.183138 0.114296 1.906026
v 1.183138 0.114296 2.078741
v 1.183138 0.068595 1.906026
v 1.183138 0.068595 2.078741
v 1.183138 0.114296 2.078741
v 1.010423 0.114296 2.078741
v 1.183138 0.068595 2.078741
v 1.010423 0.068595 2.078741
v 1.010423 0.114296 1.906026
v 1.010423 0.068595 1.906026
v 1.010423 0.114296 2.078741
v 1.010423 0.068595 2.078741
v 1.195475 0.114599 2.091078
v 0.998086 0.114599 2.091078
v 1.195475 0.114599 1.893689
v 0.998086 0.114599 1.893689
v 1.195475 0.315908 2.091077
v 1.195475 0.315908 1.893689
v 0.998086 0.315908 2.091078
v 0.998086 0.315908 1.893689
v 0.998086 0.114599 1.893689
v 0.998086 0.315908 1.893689
v 1.195475 0.114599 1.893689
v 1.195475 0.315908 1.893689
v 1.195475 0.114599 2.091078
v 1.195475 0.114599 1.893689
v 1.195475 0.315908 2.091077
v 1.195475 0.315908 1.893689
v 1.195475 0.315908 2.091077
v 0.998086 0.315908 2.091078
v 1.195475 0.114599 2.091078
v 0.998086 0.114599 2.091078
v 0.998086 0.114599 2.091078
v 0.998086 0.315908 2.091078
v 0.998086 0.114599 1.893689
v 0.998086 0.315908 1.893689
v 1.195475 -0.127651 2.091078
v 0.998086 -0.127651 2.091078
v 1.195475 -0.127651 1.893689
v 0.998086 -0.127651 1.893689
v 1.195475 0.069512 1.893689
v 0.998086 0.069512 1.893689
v 1.195475 0.069512 2.091078
v 0.998086 0.069512 2.091078
v 1.195475 -0.127651 1.893689
v 0.998086 -0.127651 1.893689
v 1.195475 0.069512 1.893689
v 0.998086 0.069512 1.893689
v 1.195475 -0.127651 2.091078
v 1.195475 -0.127651 1.893689
v 1.195475 0.069512 2.091078
v 1.195475 0.069512 1.893689
v 1.195475 0.069512 2.091078
v 0.998086 0.069512 2.091078
v 1.195475 -0.127651 2.091078
v 0.998086 -0.127651 2.091078
v 0.998086 0.069512 2.091078
v 0.998086 0.069512 1.893689
v 0.998086 -0.127651 2.091078
v 0.998086 -0.127651 1.893689
v 1.192318 -0.276258 2.091078
v 0.994929 -0.276258 2.091078
v 1.192318 -0.276258 1.794994
v 0.994929 -0.276258 1.794995
v 1.181352 -0.177564 1.893689
v 1.159420 -0.177564 1.893689
v 1.179981 -0.177564 1.906026
v 1.005895 -0.177564 1.893689
v 1.007266 -0.177564 1.906026
v 0.994929 -0.177564 1.893689
v 0.994929 -0.177564 1.906026
v 0.994929 -0.177564 2.091078
v 1.007266 -0.177564 2.078741
v 1.192318 -0.177564 2.091078
v 1.179981 -0.177564 2.078741
v 1.192318 -0.177564 2.041730
v 1.192318 -0.177564 1.906026
v 1.192318 -0.177564 1.893689
v 0.994929 -0.177564 1.794995
v 1.192318 -0.177564 1.794994
v 1.192318 -0.276258 1.794994
v 0.994929 -0.276258 1.794995
v 1.192318 -0.177564 1.794994
v 0.994929 -0.177564 1.794995
v 1.192318 -0.276258 1.794994
v 1.192318 -0.177564 1.893689
v 1.192318 -0.177564 2.091078
v 1.192318 -0.177564 1.794994
v 1.192318 -0.276258 2.091078
v 1.192318 -0.276258 2.091078
v 1.192318 -0.177564 2.091078
v 0.994929 -0.276258 2.091078
v 0.994929 -0.177564 2.091078
v 0.994929 -0.177564 2.091078
v 0.994929 -0.177564 1.794995
v 0.994929 -0.276258 2.091078
v 0.994929 -0.276258 1.794995
v 1.179981 -0.128217 2.078741
v 1.007266 -0.128217 1.906026
v 1.007266 -0.128217 2.078741
v 1.179981 -0.128217 1.906026
v 1.179981 -0.128217 2.078741
v 1.179981 -0.177564 2.078741
v 1.179981 -0.128217 1.906026
v 1.179981 -0.177564 1.906026
v 1.179981 -0.177564 2.078741
v 1.179981 -0.128217 2.078741
v 1.007266 -0.177564 2.078741
v 1.007266 -0.128217 2.078741
v 1.007266 -0.128217 1.906026
v 1.007266 -0.177564 1.906026
v 1.007266 -0.128217 2.078741
v 1.007266 -0.177564 2.078741
v 1.179981 -0.177564 1.906026
v 1.007266 -0.177564 1.906026
v 1.007266 -0.128217 1.906026
v 1.179981 -0.128217 1.906026
vt 0.623438 0.131250
vt 0.565625 0.131250
vt 0.623438 0.243750
vt 0.565625 0.243750
vt 0.565625 0.131250
vt 0.565625 0.243750
vt 0.623438 0.131250
vt 0.623438 0.243750
vt 0.437500 0.218750
vt 0.375000 0.218750
vt 0.437500 0.253125
vt 0.375000 0.253125
vt 0.312500 0.253125
vt 0.375000 0.253125
vt 0.312500 0.218750
vt 0.375000 0.218750
vt 0.562500 0.253125
vt 0.500000 0.253125
vt 0.562500 0.218750
vt 0.500000 0.218750
vt 0.500000 0.253125
vt 0.500000 0.218750
vt 0.437500 0.253125
vt 0.437500 0.218750
vt 0.623438 0.131250
vt 0.565625 0.131250
vt 0.623438 0.243750
vt 0.565625 0.243750
vt 0.623438 0.371875
vt 0.623438 0.253125
vt 0.564063 0.371875
vt 0.564063 0.253125
vt 0.375000 0.253125
vt 0.375000 0.375000
vt 0.437500 0.253125
vt 0.437500 0.375000
vt 0.375000 0.253125
vt 0.312500 0.253125
vt 0.375000 0.375000
vt 0.312500 0.375000
vt 0.562500 0.375000
vt 0.500000 0.375000
vt 0.562500 0.253125
vt 0.500000 0.253125
vt 0.437500 0.253125
vt 0.437500 0.375000
vt 0.500000 0.253125
vt 0.500000 0.375000
vt 0.623438 0.131250
vt 0.565625 0.131250
vt 0.623438 0.243750
vt 0.565625 0.243750
vt 0.623438 0.131250
vt 0.565625 0.131250
vt 0.623438 0.243750
vt 0.565625 0.243750
vt 0.375000 0.065625
vt 0.437500 0.065625
vt 0.375000 0.218750
vt 0.437500 0.218750
vt 0.375000 0.065625
vt 0.312500 0.065625
vt 0.375000 0.218750
vt 0.312500 0.218750
vt 0.562500 0.218750
vt 0.500000 0.218750
vt 0.562500 0.065625
vt 0.500000 0.065625
vt 0.437500 0.218750
vt 0.500000 0.218750
vt 0.437500 0.065625
vt 0.500000 0.065625
vt 0.779688 0.215625
vt 0.720313 0.215625
vt 0.779688 0.062500
vt 0.720313 0.062500
vt 0.621875 0.125000
vt 0.614063 0.125000
vt 0.620313 0.131250
vt 0.567188 0.125000
vt 0.568750 0.131250
vt 0.564063 0.125000
vt 0.564063 0.131250
vt 0.564063 0.246875
vt 0.568750 0.240625
vt 0.623438 0.246875
vt 0.620313 0.240625
vt 0.623438 0.212500
vt 0.623438 0.131250
vt 0.623438 0.125000
vt 0.564063 0.065625
vt 0.623438 0.065625
vt 0.623438 0.003125
vt 0.564063 0.003125
vt 0.623438 0.059375
vt 0.564063 0.059375
vt 0.471883 0.002959
vt 0.503133 0.059209
vt 0.562508 0.059209
vt 0.471883 0.059209
vt 0.562508 0.002959
vt 0.779688 0.003125
vt 0.779688 0.059375
vt 0.720313 0.003125
vt 0.720313 0.059375
vt 0.626628 0.059620
vt 0.717253 0.059620
vt 0.626628 0.003370
vt 0.717253 0.003370
vt 0.435938 0.121875
vt 0.376563 0.096875
vt 0.376563 0.121875
vt 0.435938 0.096875
vt 0.498438 0.090625
vt 0.498438 0.065625
vt 0.439063 0.090625
vt 0.439063 0.065625
vt 0.501563 0.065625
vt 0.501563 0.090625
vt 0.560938 0.065625
vt 0.560938 0.090625
vt 0.373438 0.090625
vt 0.373438 0.065625
vt 0.314063 0.090625
vt 0.314063 0.065625
vt 0.435938 0.065625
vt 0.376563 0.065625
vt 0.376563 0.090625
vt 0.435938 0.090625
vn 0.000000 -1.000000 0.000000
vn 0.000000 -1.000000 0.000000
vn 0.000000 -1.000000 0.000000
vn 0.000000 -1.000000 0.000000
vn 0.000000 1.000000 0.000000
vn 0.000000 1.000000 0.000000
vn 0.000000 1.000000 0.000000
vn 0.000000 1.000000 0.000000
vn 0.000000 -0.000001 -1.000000
vn 0.000000 -0.000001 -1.000000
vn 0.000000 -0.000001 -1.000000
vn 0.000000 -0.000001 -1.000000
vn 1.000000 0.000000 0.000000
vn 1.000000 0.000000 0.000000
vn 1.000000 0.000000 0.000000
vn 1.000000 0.000000 0.000000
vn 0.000000 0.000001 1.000000
vn 0.000000 0.000001 1.000000
vn 0.000000 0.000001 1.000000
vn 0.000000 0.000001 1.000000
vn -1.000000 0.000000 0.000000
vn -1.000000 0.000000 0.000000
vn -1.000000 0.000000 0.000000
vn -1.000000 0.000000 0.000000
vn 0.000000 -1.000000 0.000000
vn 0.000000 -1.000000 0.000000
vn 0.000000 -1.000000 0.000000
vn 0.000000 -1.000000 0.000000
vn 0.000000 1.000000 0.000000
vn 0.000000 1.000000 0.000000
vn 0.000000 1.000000 0.000000
vn 0.000000 1.000000 0.000000
vn 0.000000 -0.000001 -1.000000
vn 0.000000 -0.000001 -1.000000
vn 0.000000 -0.000001 -1.000000
vn 0.000000 -0.000001 -1.000000
vn 1.000000 0.000000 0.000000
vn 1.000000 0.000000 0.000000
vn 1.000000 0.000000 0.000000
vn 1.000000 0.000000 0.000000
vn 0.000000 0.000001 1.000000
vn 0.000000 0.000001 1.000000
vn 0.000000 0.000001 1.000000
vn 0.000000 0.000001 1.000000
vn -1.000000 0.000000 0.000000
vn -1.000000 0.000000 0.000000
vn -1.000000 0.000000 0.000000
vn -1.000000 0.000000 0.000000
vn 0.000000 -1.000000 0.000000
vn 0.000000 -1.000000 0.000000
vn 0.000000 -1.000000 0.000000
vn 0.000000 -1.000000 0.000000
vn 0.000000 1.000000 0.000000
vn 0.000000 1.000000 0.000000
vn 0.000000 1.000000 0.000000
vn 0.000000 1.000000 0.000000
vn 0.000000 -0.000001 -1.000000
vn 0.000000 -0.000001 -1.000000
vn 0.000000 -0.000001 -1.000000
vn 0.000000 -0.000001 -1.000000
vn 1.000000 0.000000 0.000000
vn 1.000000 0.000000 0.000000
vn 1.000000 0.000000 0.000000
vn 1.000000 0.000000 0.000000
vn 0.000000 0.000001 1.000000
vn 0.000000 0.000001 1.000000
vn 0.000000 0.000001 1.000000
vn 0.000000 0.000001 1.000000
vn -1.000000 0.000000 0.000000
vn -1.000000 0.000000 0.000000
vn -1.000000 0.000000 0.000000
vn -1.000000 0.000000 0.000000
vn 0.000000 -1.000000 0.000000
vn 0.000000 -1.000000 0.000000
vn 0.000000 -1.000000 0.000000
vn 0.000000 -1.000000 0.000000
vn 0.000000 1.000000 0.000000
vn 0.000000 1.000000 0.000000
vn 0.000000 1.000000 0.000000
vn 0.000000 1.000000 0.000000
vn 0.000000 1.000000 0.000000
vn 0.000000 1.000000 0.000000
vn 0.000000 1.000000 0.000000
vn 0.000000 1.000000 0.000000
vn 0.000000 1.000000 0.000000
vn 0.000000 1.000000 0.000000
vn 0.000000 1.000000 0.000000
vn 0.000000 1.000000 0.000000
vn 0.000000 1.000000 0.000000
vn 0.000000 1.000000 0.000000
vn 0.000000 1.000000 0.000000
vn 0.000000 1.000000 0.000000
vn 0.000000 -0.000001 -1.000000
vn 0.000000 -0.000001 -1.000000
vn 0.000000 -0.000001 -1.000000
vn 0.000000 -0.000001 -1.000000
vn 1.000000 0.000000 0.000000
vn 1.000000 0.000000 0.000000
vn 1.000000 0.000000 0.000000
vn 1.000000 0.000000 0.000000
vn 1.000000 0.000000 0.000000
vn 0.000000 0.000001 1.000000
vn 0.000000 0.000001 1.000000
vn 0.000000 0.000001 1.000000
vn 0.000000 0.000001 1.000000
vn -1.000000 0.000000 0.000000
vn -1.000000 0.000000 0.000000
vn -1.000000 0.000000 0.000000
vn -1.000000 0.000000 0.000000
vn 0.000000 1.000000 0.000000
vn 0.000000 1.000000 0.000000
vn 0.000000 1.000000 0.000000
vn 0.000000 1.000000 0.000000
vn 1.000000 0.000000 0.000000
vn 1.000000 0.000000 0.000000
vn 1.000000 0.000000 0.000000
vn 1.000000 0.000000 0.000000
vn 0.000000 0.000001 1.000000
vn 0.000000 0.000001 1.000000
vn 0.000000 0.000001 1.000000
vn 0.000000 0.000001 1.000000
vn -1.000000 0.000000 0.000000
vn -1.000000 0.000000 0.000000
vn -1.000000 0.000000 0.000000
vn -1.000000 0.000000 0.000000
vn 0.000000 -0.000001 -1.000000
vn 0.000000 -0.000001 -1.000000
vn 0.000000 -0.000001 -1.000000
vn 0.000000 -0.000001 -1.000000
f 1/1/1 2/2/2 3/3/3
f 3/3/3 2/2/2 4/4/4
f 5/5/5 6/6/6 7/7/7
f 7/7/7 6/6/6 8/8/8
f 9/9/9 10/10/10 11/11/11
f 11/11/11 10/10/10 12/12/12
f 13/13/13 14/14/14 15/15/15
f 15/15/15 14/14/14 16/16/16
f 17/17/17 18/18/18 19/19/19
f 19/19/19 18/18/18 20/20/20
f 21/21/21 22/22/22 23/23/23
f 22/22/22 24/24/24 23/23/23
f 25/25/25 26/26/26 27/27/27
f 26/26/26 28/28/28 27/27/27
f 29/29/29 30/30/30 31/31/31
f 30/30/30 32/32/32 31/31/31
f 33/33/33 34/34/34 35/35/35
f 35/35/35 34/34/34 36/36/36
f 37/37/37 38/38/38 39/39/39
f 38/38/38 40/40/40 39/39/39
f 41/41/41 42/42/42 43/43/43
f 42/42/42 44/44/44 43/43/43
f 45/45/45 46/46/46 47/47/47
f 47/47/47 46/46/46 48/48/48
f 49/49/49 50/50/50 51/51/51
f 50/50/50 52/52/52 51/51/51
f 53/53/53 54/54/54 55/55/55
f 54/54/54 56/56/56 55/55/55
f 57/57/57 58/58/58 59/59/59
f 58/58/58 60/60/60 59/59/59
f 61/61/61 62/62/62 63/63/63
f 62/62/62 64/64/64 63/63/63
f 65/65/65 66/66/66 67/67/67
f 66/66/66 68/68/68 67/67/67
f 69/69/69 70/70/70 71/71/71
f 70/70/70 72/72/72 71/71/71
f 73/73/73 74/74/74 75/75/75
f 74/74/74 76/76/76 75/75/75
f 77/77/77 78/78/78 79/79/79
f 80/80/80 79/79/79 78/78/78
f 79/79/79 80/80/80 81/81/81
f 82/82/82 81/81/81 80/80/80
f 81/81/81 82/82/82 83/83/83
f 81/81/81 83/83/83 84/84/84
f 84/84/84 85/85/85 81/81/81
f 86/86/86 85/85/85 84/84/84
f 85/85/85 86/86/86 87/87/87
f 88/88/88 79/79/79 87/87/87
f 87/87/87 86/86/86 88/88/88
f 79/79/79 88/88/88 89/89/89
f 89/89/89 77/77/77 79/79/79
f 77/77/77 89/89/89 90/90/90
f 82/82/82 80/80/80 91/91/91
f 80/80/80 78/78/78 91/91/91
f 92/92/92 78/78/78 77/77/77
f 78/78/78 92/92/92 91/91/91
f 77/77/77 90/90/90 92/92/92
f 93/93/93 94/94/94 95/95/95
f 95/95/95 94/94/94 96/96/96
f 97/97/97 98/98/98 99/99/99
f 98/98/98 97/97/97 100/100/100
f 97/97/97 99/99/99 101/101/101
f 102/102/102 103/103/103 104/104/104
f 103/103/103 105/105/105 104/104/104
f 106/106/106 107/107/107 108/108/108
f 108/108/108 107/107/107 109/109/109
f 110/110/110 111/111/111 112/112/112
f 113/113/113 111/111/111 110/110/110
f 114/114/114 115/115/115 116/116/116
f 115/115/115 117/117/117 116/116/116
f 118/118/118 119/119/119 120/120/120
f 119/119/119 121/121/121 120/120/120
f 122/122/122 123/123/123 124/124/124
f 123/123/123 125/125/125 124/124/124
f 126/126/126 127/127/127 128/128/128
f 129/129/129 126/126/126 128/128/128
g trunk
v 1.186892 0.760033 2.091078
v 0.792114 0.315908 2.091078
v 1.186892 0.315908 2.091078
v 0.792114 0.760033 2.091078
v 1.186892 0.901698 2.091078
v 1.186892 0.908074 2.091078
v 0.792114 0.908074 2.091078
v 0.792114 0.315908 1.893689
v 1.186892 0.661338 1.893689
v 1.186892 0.315908 1.893689
v 0.792114 0.661338 1.893689
v 0.792114 0.315908 2.091078
v 1.186892 0.315908 1.893689
v 1.186892 0.315908 2.091078
v 0.792114 0.315908 1.893689
v 1.186892 0.661338 1.893689
v 1.186892 0.315908 2.091078
v 1.186892 0.315908 1.893689
v 1.186892 0.760033 2.091078
v 1.186892 0.760033 1.893689
v 0.792114 0.908074 1.893689
v 1.186892 0.908074 2.082575
v 1.186892 0.908074 1.893689
v 0.792114 0.908074 2.091078
v 1.186892 0.908074 2.091078
v 0.792114 0.760033 2.091078
v 0.792114 0.760033 1.893689
v 0.792114 0.315908 2.091078
v 0.792114 0.661338 1.893689
v 0.792114 0.315908 1.893689
v 1.186892 0.760033 2.091078
v 1.204662 0.760033 2.091078
v 1.204662 0.908074 2.091078
v 1.186892 0.901698 2.091078
v 1.186892 0.908074 2.091078
v 0.792114 0.760033 2.091078
v 0.792114 0.908074 2.091078
v 0.773629 0.908074 2.091078
v 0.773629 0.760033 2.091078
v 0.792114 0.760033 1.893689
v 0.773629 0.908074 1.893689
v 0.792114 0.908074 1.893689
v 0.773629 0.760033 1.893689
v 1.186892 0.908074 1.893689
v 1.204662 0.760033 1.893689
v 1.186892 0.760033 1.893689
v 1.204662 0.908074 1.893689
v 1.186892 0.760033 1.893689
v 1.204662 0.760033 2.091078
v 1.186892 0.760033 2.091078
v 1.204662 0.760033 1.893689
v 1.204662 0.908074 2.091078
v 1.204662 0.908074 1.893689
v 1.186892 0.908074 1.893689
v 1.186892 0.908074 2.082575
v 1.186892 0.908074 2.091078
v 0.792114 0.908074 1.893689
v 0.773629 0.908074 2.091078
v 0.792114 0.908074 2.091078
v 0.773629 0.908074 1.893689
v 0.792114 0.760033 2.091078
v 0.773629 0.760033 1.893689
v 0.792114 0.760033 1.893689
v 0.773629 0.760033 2.091078
v 0.792114 0.661338 1.893689
v 1.186892 0.661338 1.869015
v 1.186892 0.661338 1.893689
v 0.792114 0.661338 1.869015
v 0.792114 0.760033 1.893689
v 0.792114 0.661338 1.869015
v 0.792114 0.661338 1.893689
v 0.792114 0.908074 1.893689
v 0.792114 0.908074 1.869015
v 1.186892 0.661338 1.893689
v 1.186892 0.661338 1.869015
v 1.186892 0.760033 1.893689
v 1.186892 0.908074 1.869015
v 1.186892 0.908074 1.893689
v 1.186892 0.908074 1.893689
v 0.792114 0.908074 1.869015
v 0.792114 0.908074 1.893689
v 1.186892 0.908074 1.869015
v 1.204662 0.760033 2.091078
v 1.204662 0.908074 1.893689
v 1.204662 0.908074 2.091078
v 1.204662 0.760033 1.893689
v 0.792114 0.661338 1.869015
v 1.186892 0.908074 1.869015
v 1.186892 0.661338 1.869015
v 0.792114 0.908074 1.869015
v 0.773629 0.760033 1.893689
v 0.773629 0.908074 2.091078
v 0.773629 0.908074 1.893689
v 0.773629 0.760033 2.091078
vt 0.251563 0.656250
vt 0.373438 0.378125
vt 0.251563 0.378125
vt 0.373438 0.656250
vt 0.251563 0.743750
vt 0.251563 0.746875
vt 0.373438 0.746875
vt 0.064063 0.378125
vt 0.185938 0.590625
vt 0.185938 0.378125
vt 0.064063 0.590625
vt 0.376563 0.503125
vt 0.498438 0.621875
vt 0.498438 0.503125
vt 0.376563 0.621875
vt 0.189063 0.590625
vt 0.248438 0.378125
vt 0.189063 0.378125
vt 0.248438 0.653125
vt 0.189063 0.653125
vt 0.376563 0.628125
vt 0.498438 0.743750
vt 0.498438 0.628125
vt 0.376563 0.746875
vt 0.498438 0.746875
vt 0.001563 0.653125
vt 0.060938 0.653125
vt 0.001563 0.378125
vt 0.060938 0.596875
vt 0.060938 0.378125
vt 0.265625 0.659375
vt 0.251563 0.659375
vt 0.251563 0.746875
vt 0.265625 0.740625
vt 0.265625 0.746875
vt 0.360938 0.656250
vt 0.360938 0.746875
vt 0.373438 0.746875
vt 0.373438 0.656250
vt 0.064063 0.659375
vt 0.076563 0.746875
vt 0.064063 0.746875
vt 0.076563 0.659375
vt 0.185938 0.746875
vt 0.173438 0.659375
vt 0.185938 0.659375
vt 0.173438 0.746875
vt 0.189063 0.684375
vt 0.248438 0.659375
vt 0.248438 0.684375
vt 0.189063 0.659375
vt 0.498438 0.746875
vt 0.498438 0.628125
vt 0.485938 0.628125
vt 0.485938 0.740625
vt 0.485938 0.746875
vt 0.389063 0.628125
vt 0.376563 0.746875
vt 0.389063 0.746875
vt 0.376563 0.628125
vt 0.001563 0.659375
vt 0.060938 0.684375
vt 0.060938 0.659375
vt 0.001563 0.684375
vt 0.064063 0.621875
vt 0.185938 0.596875
vt 0.185938 0.621875
vt 0.064063 0.596875
vt 0.064063 0.656250
vt 0.076563 0.596875
vt 0.064063 0.596875
vt 0.064063 0.746875
vt 0.076563 0.746875
vt 0.185938 0.596875
vt 0.173438 0.596875
vt 0.185938 0.656250
vt 0.173438 0.746875
vt 0.185938 0.746875
vt 0.498438 0.628125
vt 0.376563 0.653125
vt 0.376563 0.628125
vt 0.498438 0.653125
vt 0.248438 0.659375
vt 0.189063 0.746875
vt 0.248438 0.746875
vt 0.189063 0.659375
vt 0.064063 0.596875
vt 0.185938 0.746875
vt 0.185938 0.596875
vt 0.064063 0.746875
vt 0.060938 0.659375
vt 0.001563 0.746875
vt 0.060938 0.746875
vt 0.001563 0.659375
vn 0.000000 0.000000 1.000000
vn 0.000000 0.000000 1.000000
vn 0.000000 0.000000 1.000000
vn 0.000000 0.000000 1.000000
vn 0.000000 0.000000 1.000000
vn 0.000000 0.000000 1.000000
vn 0.000000 0.000000 1.000000
vn 0.000000 0.000000 -1.000000
vn 0.000000 0.000000 -1.000000
vn 0.000000 0.000000 -1.000000
vn 0.000000 0.000000 -1.000000
vn 0.000000 -1.000000 0.000000
vn 0.000000 -1.000000 0.000000
vn 0.000000 -1.000000 0.000000
vn 0.000000 -1.000000 0.000000
vn 1.000000 0.000000 0.000000
vn 1.000000 0.000000 0.000000
vn 1.000000 0.000000 0.000000
vn 1.000000 0.000000 0.000000
vn 1.000000 0.000000 0.000000
vn 0.000000 1.000000 0.000000
vn 0.000000 1.000000 0.000000
vn 0.000000 1.000000 0.000000
vn 0.000000 1.000000 0.000000
vn 0.000000 1.000000 0.000000
vn -1.000000 0.000000 0.000000
vn -1.000000 0.000000 0.000000
vn -1.000000 0.000000 0.000000
vn -1.000000 0.000000 0.000000
vn -1.000000 0.000000 0.000000
vn 0.000000 0.000000 1.000000
vn 0.000000 0.000000 1.000000
vn 0.000000 0.000000 1.000000
vn 0.000000 0.000000 1.000000
vn 0.000000 0.000000 1.000000
vn 0.000000 0.000000 1.000000
vn 0.000000 0.000000 1.000000
vn 0.000000 0.000000 1.000000
vn 0.000000 0.000000 1.000000
vn 0.000000 0.000000 -1.000000
vn 0.000000 0.000000 -1.000000
vn 0.000000 0.000000 -1.000000
vn 0.000000 0.000000 -1.000000
vn 0.000000 0.000000 -1.000000
vn 0.000000 0.000000 -1.000000
vn 0.000000 0.000000 -1.000000
vn 0.000000 0.000000 -1.000000
vn 0.000000 -1.000000 0.000000
vn 0.000000 -1.000000 0.000000
vn 0.000000 -1.000000 0.000000
vn 0.000000 -1.000000 0.000000
vn 0.000000 1.000000 0.000000
vn 0.000000 1.000000 0.000000
vn 0.000000 1.000000 0.000000
vn 0.000000 1.000000 0.000000
vn 0.000000 1.000000 0.000000
vn 0.000000 1.000000 0.000000
vn 0.000000 1.000000 0.000000
vn 0.000000 1.000000 0.000000
vn 0.000000 1.000000 0.000000
vn 0.000000 -1.000000 0.000000
vn 0.000000 -1.000000 0.000000
vn 0.000000 -1.000000 0.000000
vn 0.000000 -1.000000 0.000000
vn 0.000000 -1.000000 0.000000
vn 0.000000 -1.000000 0.000000
vn 0.000000 -1.000000 0.000000
vn 0.000000 -1.000000 0.000000
vn -1.000000 0.000000 0.000000
vn -1.000000 0.000000 0.000000
vn -1.000000 0.000000 0.000000
vn -1.000000 0.000000 0.000000
vn -1.000000 0.000000 0.000000
vn 1.000000 0.000000 0.000000
vn 1.000000 0.000000 0.000000
vn 1.000000 0.000000 0.000000
vn 1.000000 0.000000 0.000000
vn 1.000000 0.000000 0.000000
vn 0.000000 1.000000 0.000000
vn 0.000000 1.000000 0.000000
vn 0.000000 1.000000 0.000000
vn 0.000000 1.000000 0.000000
vn 1.000000 0.000000 0.000000
vn 1.000000 0.000000 0.000000
vn 1.000000 0.000000 0.000000
vn 1.000000 0.000000 0.000000
vn 0.000000 0.000000 -1.000000
vn 0.000000 0.000000 -1.000000
vn 0.000000 0.000000 -1.000000
vn 0.000000 0.000000 -1.000000
vn -1.000000 0.000000 0.000000
vn -1.000000 0.000000 0.000000
vn -1.000000 0.000000 0.000000
vn -1.000000 0.000000 0.000000
f 130/130/130 131/131/131 132/132/132
f 131/131/131 130/130/130 133/133/133
f 130/130/130 134/134/134 133/133/133
f 135/135/135 133/133/133 134/134/134
f 133/133/133 135/135/135 136/136/136
f 137/137/137 138/138/138 139/139/139
f 138/138/138 137/137/137 140/140/140
f 141/141/141 142/142/142 143/143/143
f 142/142/142 141/141/141 144/144/144
f 145/145/145 146/146/146 147/147/147
f 146/146/146 145/145/145 148/148/148
f 149/149/149 148/148/148 145/145/145
f 150/150/150 151/151/151 152/152/152
f 153/153/153 151/151/151 150/150/150
f 151/151/151 153/153/153 154/154/154
f 155/155/155 156/156/156 157/157/157
f 158/158/158 157/157/157 156/156/156
f 159/159/159 157/157/157 158/158/158
f 160/160/160 161/161/161 162/162/162
f 163/163/163 160/160/160 162/162/162
f 164/164/164 163/163/163 162/162/162
f 165/165/165 166/166/166 167/167/167
f 168/168/168 165/165/165 167/167/167
f 169/169/169 170/170/170 171/171/171
f 170/170/170 169/169/169 172/172/172
f 173/173/173 174/174/174 175/175/175
f 174/174/174 173/173/173 176/176/176
f 177/177/177 178/178/178 179/179/179
f 178/178/178 177/177/177 180/180/180
f 181/181/181 182/182/182 183/183/183
f 183/183/183 184/184/184 181/181/181
f 184/184/184 185/185/185 181/181/181
f 186/186/186 187/187/187 188/188/188
f 187/187/187 186/186/186 189/189/189
f 190/190/190 191/191/191 192/192/192
f 191/191/191 190/190/190 193/193/193
f 194/194/194 195/195/195 196/196/196
f 195/195/195 194/194/194 197/197/197
f 198/198/198 199/199/199 200/200/200
f 201/201/201 199/199/199 198/198/198
f 199/199/199 201/201/201 202/202/202
f 203/203/203 204/204/204 205/205/205
f 206/206/206 205/205/205 204/204/204
f 205/205/205 206/206/206 207/207/207
f 208/208/208 209/209/209 210/210/210
f 209/209/209 208/208/208 211/211/211
f 212/212/212 213/213/213 214/214/214
f 213/213/213 212/212/212 215/215/215
f 216/216/216 217/217/217 218/218/218
f 217/217/217 216/216/216 219/219/219
f 220/220/220 221/221/221 222/222/222
f 221/221/221 220/220/220 223/223/223
g head
v 1.088216 0.932748 2.091078
v 0.890828 0.908074 2.091078
v 1.088216 0.908074 2.091078
v 0.890828 0.932748 2.091078
v 1.088216 0.932748 1.893689
v 0.890828 0.908074 1.893689
v 0.890828 0.932748 1.893689
v 1.088216 0.908074 1.893689
v 1.088216 0.908074 1.893689
v 0.890828 0.908074 2.091078
v 0.890828 0.908074 1.893689
v 1.088216 0.908074 2.091078
v 1.088216 0.932748 1.893689
v 1.088216 0.908074 2.091078
v 1.088216 0.908074 1.893689
v 1.088216 0.932748 2.091078
v 0.890828 0.932748 1.893689
v 1.088216 0.932748 2.091078
v 1.088216 0.932748 1.893689
v 0.890828 0.932748 2.091078
v 0.890828 0.908074 1.893689
v 0.890828 0.932748 2.091078
v 0.890828 0.932748 1.893689
v 0.890828 0.908074 2.091078
v 1.186911 1.327526 2.189772
v 0.792133 0.932748 2.189772
v 1.186911 0.932748 2.189772
v 0.792133 1.327526 2.189772
v 1.186911 1.327526 1.794994
v 0.792133 0.932748 1.794994
v 0.792133 1.327526 1.794994
v 1.186911 0.932748 1.794994
v 1.186911 0.932748 1.794994
v 0.792133 0.932748 2.189772
v 0.792133 0.932748 1.794994
v 1.186911 0.932748 2.189772
v 1.186911 1.327526 1.794994
v 1.186911 0.932748 2.189772
v 1.186911 0.932748 1.794994
v 1.186911 1.327526 2.189772
v 0.792133 1.327526 1.794994
v 1.186911 1.327526 2.189772
v 1.186911 1.327526 1.794994
v 0.792133 1.327526 2.189772
v 0.792133 0.932748 1.794994
v 0.792133 1.327526 2.189772
v 0.792133 1.327526 1.794994
v 0.792133 0.932748 2.189772
vt 0.623438 0.615625
vt 0.562500 0.631250
vt 0.623438 0.631250
vt 0.562500 0.615625
vt 0.679688 0.615625
vt 0.740625 0.631250
vt 0.740625 0.615625
vt 0.679688 0.631250
vt 0.623438 0.737500
vt 0.562500 0.631250
vt 0.562500 0.737500
vt 0.623438 0.631250
vt 0.679688 0.615625
vt 0.623438 0.631250
vt 0.679688 0.631250
vt 0.623438 0.615625
vt 0.562500 0.509375
vt 0.623438 0.615625
vt 0.623438 0.509375
vt 0.562500 0.615625
vt 0.504688 0.631250
vt 0.562500 0.615625
vt 0.504688 0.615625
vt 0.562500 0.631250
vt 0.376563 0.996875
vt 0.498438 0.753125
vt 0.376563 0.753125
vt 0.498438 0.996875
vt 0.248438 0.996875
vt 0.126563 0.753125
vt 0.126563 0.996875
vt 0.248438 0.753125
vt 0.748438 0.996875
vt 0.626563 0.753125
vt 0.626563 0.996875
vt 0.748438 0.753125
vt 0.251563 0.996875
vt 0.373438 0.753125
vt 0.251563 0.753125
vt 0.373438 0.996875
vt 0.501563 0.753125
vt 0.623438 0.996875
vt 0.623438 0.753125
vt 0.501563 0.996875
vt 0.123438 0.753125
vt 0.001563 0.996875
vt 0.123438 0.996875
vt 0.001563 0.753125
vn 0.000000 0.000000 1.000000
vn 0.000000 0.000000 1.000000
vn 0.000000 0.000000 1.000000
vn 0.000000 0.000000 1.000000
vn 0.000000 0.000000 -1.000000
vn 0.000000 0.000000 -1.000000
vn 0.000000 0.000000 -1.000000
vn 0.000000 0.000000 -1.000000
vn 0.000000 -1.000000 0.000000
vn 0.000000 -1.000000 0.000000
vn 0.000000 -1.000000 0.000000
vn 0.000000 -1.000000 0.000000
vn 1.000000 0.000000 0.000000
vn 1.000000 0.000000 0.000000
vn 1.000000 0.000000 0.000000
vn 1.000000 0.000000 0.000000
vn 0.000000 1.000000 0.000000
vn 0.000000 1.000000 0.000000
vn 0.000000 1.000000 0.000000
vn 0.000000 1.000000 0.000000
vn -1.000000 0.000000 0.000000
vn -1.000000 0.000000 0.000000
vn -1.000000 0.000000 0.000000
vn -1.000000 0.000000 0.000000
vn 0.000000 0.000000 1.000000
vn 0.000000 0.000000 1.000000
vn 0.000000 0.000000 1.000000
vn 0.000000 0.000000 1.000000
vn 0.000000 0.000000 -1.000000
vn 0.000000 0.000000 -1.000000
vn 0.000000 0.000000 -1.000000
vn 0.000000 0.000000 -1.000000
vn 0.000000 -1.000000 0.000000
vn 0.000000 -1.000000 0.000000
vn 0.000000 -1.000000 0.000000
vn 0.000000 -1.000000 0.000000
vn 1.000000 0.000000 0.000000
vn 1.000000 0.000000 0.000000
vn 1.000000 0.000000 0.000000
vn 1.000000 0.000000 0.000000
vn 0.000000 1.000000 0.000000
vn 0.000000 1.000000 0.000000
vn 0.000000 1.000000 0.000000
vn 0.000000 1.000000 0.000000
vn -1.000000 0.000000 0.000000
vn -1.000000 0.000000 0.000000
vn -1.000000 0.000000 0.000000
vn -1.000000 0.000000 0.000000
f 224/224/224 225/225/225 226/226/226
f 225/225/225 224/224/224 227/227/227
f 228/228/228 229/229/229 230/230/230
f 229/229/229 228/228/228 231/231/231
f 232/232/232 233/233/233 234/234/234
f 233/233/233 232/232/232 235/235/235
f 236/236/236 237/237/237 238/238/238
f 237/237/237 236/236/236 239/239/239
f 240/240/240 241/241/241 242/242/242
f 241/241/241 240/240/240 243/243/243
f 244/244/244 245/245/245 246/246/246
f 245/245/245 244/244/244 247/247/247
f 248/248/248 249/249/249 250/250/250
f 249/249/249 248/248/248 251/251/251
f 252/252/252 253/253/253 254/254/254
f 253/253/253 252/252/252 255/255/255
f 256/256/256 257/257/257 258/258/258
f 257/257/257 256/256/256 259/259/259
f 260/260/260 261/261/261 262/262/262
f 261/261/261 260/260/260 263/263/263
f 264/264/264 265/265/265 266/266/266
f 265/265/265 264/264/264 267/267/267
f 268/268/268 269/269/269 270/270/270
f 269/269/269 268/268/268 271/271/271
g hand_left
v 0.761311 0.587318 2.078741
v 0.588596 0.587318 2.078741
v 0.761311 0.587318 1.906026
v 0.588596 0.587318 1.906026
v 0.588596 0.661338 1.906026
v 0.588596 0.661338 2.078741
v 0.761311 0.661338 1.906026
v 0.761311 0.661338 2.078741
v 0.761311 0.587318 1.906026
v 0.588596 0.587318 1.906026
v 0.761311 0.661338 1.906026
v 0.588596 0.661338 1.906026
v 0.761311 0.661338 1.906026
v 0.761311 0.661338 2.078741
v 0.761311 0.587318 1.906026
v 0.761311 0.587318 2.078741
v 0.761311 0.661338 2.078741
v 0.588596 0.661338 2.078741
v 0.761311 0.587318 2.078741
v 0.588596 0.587318 2.078741
v 0.588596 0.661338 1.906026
v 0.588596 0.587318 1.906026
v 0.588596 0.661338 2.078741
v 0.588596 0.587318 2.078741
v 0.773648 0.661338 2.091078
v 0.576259 0.661338 2.091078
v 0.773648 0.661338 1.893689
v 0.576259 0.661338 1.893689
v 0.773648 0.908074 2.091078
v 0.773648 0.908074 1.893689
v 0.576259 0.908074 2.091078
v 0.576259 0.908074 1.893689
v 0.576259 0.661338 1.893689
v 0.576259 0.908074 1.893689
v 0.773648 0.661338 1.893689
v 0.773648 0.908074 1.893689
v 0.773648 0.661338 2.091078
v 0.773648 0.661338 1.893689
v 0.773648 0.908074 2.091078
v 0.773648 0.908074 1.893689
v 0.773648 0.908074 2.091078
v 0.576259 0.908074 2.091078
v 0.773648 0.661338 2.091078
v 0.576259 0.661338 2.091078
v 0.576259 0.661338 2.091078
v 0.576259 0.908074 2.091078
v 0.576259 0.661338 1.893689
v 0.576259 0.908074 1.893689
v 0.773648 0.315908 2.091078
v 0.576259 0.315908 2.091078
v 0.773648 0.315908 1.893689
v 0.576259 0.315908 1.893689
v 0.773648 0.587318 1.893689
v 0.576259 0.587318 1.893689
v 0.773648 0.587318 2.091078
v 0.576259 0.587318 2.091078
v 0.773648 0.315908 1.893689
v 0.576259 0.315908 1.893689
v 0.773648 0.587318 1.893689
v 0.576259 0.587318 1.893689
v 0.773648 0.315908 2.091078
v 0.773648 0.315908 1.893689
v 0.773648 0.587318 2.091078
v 0.773648 0.587318 1.893689
v 0.773648 0.587318 2.091078
v 0.576259 0.587318 2.091078
v 0.773648 0.315908 2.091078
v 0.576259 0.315908 2.091078
v 0.576259 0.587318 2.091078
v 0.576259 0.587318 1.893689
v 0.576259 0.315908 2.091078
v 0.576259 0.315908 1.893689
vt 0.310938 0.131250
vt 0.253125 0.131250
vt 0.310938 0.243750
vt 0.253125 0.243750
vt 0.253125 0.131250
vt 0.253125 0.243750
vt 0.310938 0.131250
vt 0.310938 0.243750
vt 0.125000 0.171875
vt 0.062500 0.171875
vt 0.125000 0.218750
vt 0.062500 0.218750
vt 0.125000 0.218750
vt 0.187500 0.218750
vt 0.125000 0.171875
vt 0.187500 0.171875
vt 0.187500 0.218750
vt 0.250000 0.218750
vt 0.187500 0.171875
vt 0.250000 0.171875
vt 0.062500 0.218750
vt 0.062500 0.171875
vt 0.000000 0.218750
vt 0.000000 0.171875
vt 0.310938 0.131250
vt 0.253125 0.131250
vt 0.310938 0.243750
vt 0.253125 0.243750
vt 0.310938 0.371875
vt 0.310938 0.253125
vt 0.251563 0.371875
vt 0.251563 0.253125
vt 0.062500 0.218750
vt 0.062500 0.375000
vt 0.125000 0.218750
vt 0.125000 0.375000
vt 0.185938 0.218750
vt 0.125000 0.218750
vt 0.185938 0.375000
vt 0.125000 0.375000
vt 0.185938 0.375000
vt 0.248438 0.375000
vt 0.185938 0.218750
vt 0.248438 0.218750
vt 0.000000 0.218750
vt 0.000000 0.375000
vt 0.062500 0.218750
vt 0.062500 0.375000
vt 0.310938 0.131250
vt 0.253125 0.131250
vt 0.310938 0.243750
vt 0.253125 0.243750
vt 0.310938 0.131250
vt 0.253125 0.131250
vt 0.310938 0.243750
vt 0.253125 0.243750
vt 0.125000 0.000000
vt 0.062500 0.000000
vt 0.125000 0.171875
vt 0.062500 0.171875
vt 0.187500 0.000000
vt 0.125000 0.000000
vt 0.187500 0.171875
vt 0.125000 0.171875
vt 0.187500 0.171875
vt 0.250000 0.171875
vt 0.187500 0.000000
vt 0.250000 0.000000
vt 0.000000 0.171875
vt 0.062500 0.171875
vt 0.000000 0.000000
vt 0.062500 0.000000
vn 0.000000 -1.000000 0.000000
vn 0.000000 -1.000000 0.000000
vn 0.000000 -1.000000 0.000000
vn 0.000000 -1.000000 0.000000
vn 0.000000 1.000000 0.000000
vn 0.000000 1.000000 0.000000
vn 0.000000 1.000000 0.000000
vn 0.000000 1.000000 0.000000
vn 0.000000 0.000000 -1.000000
vn 0.000000 0.000000 -1.000000
vn 0.000000 0.000000 -1.000000
vn 0.000000 0.000000 -1.000000
vn 1.000000 0.000000 0.000000
vn 1.000000 0.000000 0.000000
vn 1.000000 0.000000 0.000000
vn 1.000000 0.000000 0.000000
vn 0.000000 0.000000 1.000000
vn 0.000000 0.000000 1.000000
vn 0.000000 0.000000 1.000000
vn 0.000000 0.000000 1.000000
vn -1.000000 0.000000 0.000000
vn -1.000000 0.000000 0.000000
vn -1.000000 0.000000 0.000000
vn -1.000000 0.000000 0.000000
vn 0.000000 -1.000000 0.000000
vn 0.000000 -1.000000 0.000000
vn 0.000000 -1.000000 0.000000
vn 0.000000 -1.000000 0.000000
vn 0.000000 1.000000 0.000000
vn 0.000000 1.000000 0.000000
vn 0.000000 1.000000 0.000000
vn 0.000000 1.000000 0.000000
vn 0.000000 0.000000 -1.000000
vn 0.000000 0.000000 -1.000000
vn 0.000000 0.000000 -1.000000
vn 0.000000 0.000000 -1.000000
vn 1.000000 0.000000 0.000000
vn 1.000000 0.000000 0.000000
vn 1.000000 0.000000 0.000000
vn 1.000000 0.000000 0.000000
vn 0.000000 0.000000 1.000000
vn 0.000000 0.000000 1.000000
vn 0.000000 0.000000 1.000000
vn 0.000000 0.000000 1.000000
vn -1.000000 0.000000 0.000000
vn -1.000000 0.000000 0.000000
vn -1.000000 0.000000 0.000000
vn -1.000000 0.000000 0.000000
vn 0.000000 -1.000000 0.000000
vn 0.000000 -1.000000 0.000000
vn 0.000000 -1.000000 0.000000
vn 0.000000 -1.000000 0.000000
vn 0.000000 1.000000 0.000000
vn 0.000000 1.000000 0.000000
vn 0.000000 1.000000 0.000000
vn 0.000000 1.000000 0.000000
vn 0.000000 0.000000 -1.000000
vn 0.000000 0.000000 -1.000000
vn 0.000000 0.000000 -1.000000
vn 0.000000 0.000000 -1.000000
vn 1.000000 0.000000 0.000000
vn 1.000000 0.000000 0.000000
vn 1.000000 0.000000 0.000000
vn 1.000000 0.000000 0.000000
vn 0.000000 0.000000 1.000000
vn 0.000000 0.000000 1.000000
vn 0.000000 0.000000 1.000000
vn 0.000000 0.000000 1.000000
vn -1.000000 0.000000 0.000000
vn -1.000000 0.000000 0.000000
vn -1.000000 0.000000 0.000000
vn -1.000000 0.000000 0.000000
f 272/272/272 273/273/273 274/274/274
f 274/274/274 273/273/273 275/275/275
f 276/276/276 277/277/277 278/278/278
f 278/278/278 277/277/277 279/279/279
f 280/280/280 281/281/281 282/282/282
f 282/282/282 281/281/281 283/283/283
f 284/284/284 285/285/285 286/286/286
f 286/286/286 285/285/285 287/287/287
f 288/288/288 289/289/289 290/290/290
f 290/290/290 289/289/289 291/291/291
f 292/292/292 293/293/293 294/294/294
f 293/293/293 295/295/295 294/294/294
f 296/296/296 297/297/297 298/298/298
f 297/297/297 299/299/299 298/298/298
f 300/300/300 301/301/301 302/302/302
f 301/301/301 303/303/303 302/302/302
f 304/304/304 305/305/305 306/306/306
f 306/306/306 305/305/305 307/307/307
f 308/308/308 309/309/309 310/310/310
f 309/309/309 311/311/311 310/310/310
f 312/312/312 313/313/313 314/314/314
f 313/313/313 315/315/315 314/314/314
f 316/316/316 317/317/317 318/318/318
f 318/318/318 317/317/317 319/319/319
f 320/320/320 321/321/321 322/322/322
f 321/321/321 323/323/323 322/322/322
f 324/324/324 325/325/325 326/326/326
f 325/325/325 327/327/327 326/326/326
f 328/328/328 329/329/329 330/330/330
f 329/329/329 331/331/331 330/330/330
f 332/332/332 333/333/333 334/334/334
f 333/333/333 335/335/335 334/334/334
f 336/336/336 337/337/337 338/338/338
f 337/337/337 339/339/339 338/338/338
f 340/340/340 341/341/341 342/342/342
f 341/341/341 343/343/343 342/342/342
g hand_right
v 1.389733 0.587318 2.078741
v 1.217018 0.587318 2.078741
v 1.389733 0.587318 1.906025
v 1.217018 0.587318 1.906025
v 1.217018 0.661338 1.906025
v 1.217018 0.661338 2.078741
v 1.389733 0.661338 1.906025
v 1.389733 0.661338 2.078741
v 1.389733 0.587318 1.906025
v 1.217018 0.587318 1.906025
v 1.389733 0.661338 1.906025
v 1.217018 0.661338 1.906025
v 1.389733 0.661338 1.906025
v 1.389733 0.661338 2.078741
v 1.389733 0.587318 1.906025
v 1.389733 0.587318 2.078741
v 1.389733 0.661338 2.078741
v 1.217018 0.661338 2.078741
v 1.389733 0.587318 2.078741
v 1.217018 0.587318 2.078741
v 1.217018 0.661338 1.906025
v 1.217018 0.587318 1.906025
v 1.217018 0.661338 2.078741
v 1.217018 0.587318 2.078741
v 1.402070 0.661338 2.091077
v 1.204681 0.661338 2.091078
v 1.402070 0.661338 1.893689
v 1.204681 0.661338 1.893689
v 1.402070 0.908074 2.091078
v 1.402070 0.908074 1.893689
v 1.204681 0.908074 2.091078
v 1.204681 0.908074 1.893689
v 1.204681 0.661338 1.893689
v 1.204681 0.908074 1.893689
v 1.402070 0.661338 1.893689
v 1.402070 0.908074 1.893689
v 1.402070 0.661338 2.091077
v 1.402070 0.661338 1.893689
v 1.402070 0.908074 2.091078
v 1.402070 0.908074 1.893689
v 1.402070 0.908074 2.091078
v 1.204681 0.908074 2.091078
v 1.402070 0.661338 2.091077
v 1.204681 0.661338 2.091078
v 1.204681 0.661338 2.091078
v 1.204681 0.908074 2.091078
v 1.204681 0.661338 1.893689
v 1.204681 0.908074 1.893689
v 1.402070 0.315908 2.091077
v 1.204681 0.315908 2.091078
v 1.402070 0.315908 1.893689
v 1.204681 0.315908 1.893689
v 1.402070 0.587318 1.893689
v 1.204681 0.587318 1.893689
v 1.402070 0.587318 2.091077
v 1.204681 0.587318 2.091078
v 1.402070 0.315908 1.893689
v 1.204681 0.315908 1.893689
v 1.402070 0.587318 1.893689
v 1.204681 0.587318 1.893689
v 1.402070 0.315908 2.091077
v 1.402070 0.315908 1.893689
v 1.402070 0.587318 2.091077
v 1.402070 0.587318 1.893689
v 1.402070 0.587318 2.091077
v 1.204681 0.587318 2.091078
v 1.402070 0.315908 2.091077
v 1.204681 0.315908 2.091078
v 1.204681 0.587318 2.091078
v 1.204681 0.587318 1.893689
v 1.204681 0.315908 2.091078
v 1.204681 0.315908 1.893689
vt 0.310938 0.131250
vt 0.253125 0.131250
vt 0.310938 0.243750
vt 0.253125 0.243750
vt 0.253125 0.131250
vt 0.253125 0.243750
vt 0.310938 0.131250
vt 0.310938 0.243750
vt 0.062500 0.171875
vt 0.125000 0.171875
vt 0.062500 0.218750
vt 0.125000 0.218750
vt 0.062500 0.218750
vt 0.000000 0.218750
vt 0.062500 0.171875
vt 0.000000 0.171875
vt 0.250000 0.218750
vt 0.187500 0.218750
vt 0.250000 0.171875
vt 0.187500 0.171875
vt 0.125000 0.218750
vt 0.125000 0.171875
vt 0.187500 0.218750
vt 0.187500 0.171875
vt 0.310938 0.131250
vt 0.253125 0.131250
vt 0.310938 0.243750
vt 0.253125 0.243750
vt 0.310938 0.371875
vt 0.310938 0.253125
vt 0.251563 0.371875
vt 0.251563 0.253125
vt 0.125000 0.218750
vt 0.125000 0.375000
vt 0.062500 0.218750
vt 0.062500 0.375000
vt 0.000000 0.218750
vt 0.062500 0.218750
vt 0.000000 0.375000
vt 0.062500 0.375000
vt 0.248438 0.375000
vt 0.185938 0.375000
vt 0.248438 0.218750
vt 0.185938 0.218750
vt 0.125000 0.218750
vt 0.125000 0.375000
vt 0.185938 0.218750
vt 0.185938 0.375000
vt 0.310938 0.131250
vt 0.253125 0.131250
vt 0.310938 0.243750
vt 0.253125 0.243750
vt 0.310938 0.131250
vt 0.253125 0.131250
vt 0.310938 0.243750
vt 0.253125 0.243750
vt 0.062500 0.000000
vt 0.125000 0.000000
vt 0.062500 0.171875
vt 0.125000 0.171875
vt 0.000000 0.000000
vt 0.062500 0.000000
vt 0.000000 0.171875
vt 0.062500 0.171875
vt 0.250000 0.171875
vt 0.187500 0.171875
vt 0.250000 0.000000
vt 0.187500 0.000000
vt 0.187500 0.171875
vt 0.125000 0.171875
vt 0.187500 0.000000
vt 0.125000 0.000000
vn 0.000000 -1.000000 0.000000
vn 0.000000 -1.000000 0.000000
vn 0.000000 -1.000000 0.000000
vn 0.000000 -1.000000 0.000000
vn 0.000000 1.000000 0.000000
vn 0.000000 1.000000 0.000000
vn 0.000000 1.000000 0.000000
vn 0.000000 1.000000 0.000000
vn 0.000000 0.000000 -1.000000
vn 0.000000 0.000000 -1.000000
vn 0.000000 0.000000 -1.000000
vn 0.000000 0.000000 -1.000000
vn 1.000000 0.000000 0.000000
vn 1.000000 0.000000 0.000000
vn 1.000000 0.000000 0.000000
vn 1.000000 0.000000 0.000000
vn 0.000000 0.000000 1.000000
vn 0.000000 0.000000 1.000000
vn 0.000000 0.000000 1.000000
vn 0.000000 0.000000 1.000000
vn -1.000000 0.000000 0.000000
vn -1.000000 0.000000 0.000000
vn -1.000000 0.000000 0.000000
vn -1.000000 0.000000 0.000000
vn 0.000000 -1.000000 0.000000
vn 0.000000 -1.000000 0.000000
vn 0.000000 -1.000000 0.000000
vn 0.000000 -1.000000 0.000000
vn 0.000000 1.000000 0.000000
vn 0.000000 1.000000 0.000000
vn 0.000000 1.000000 0.000000
vn 0.000000 1.000000 0.000000
vn 0.000000 0.000000 -1.000000
vn 0.000000 0.000000 -1.000000
vn 0.000000 0.000000 -1.000000
vn 0.000000 0.000000 -1.000000
vn 1.000000 0.000000 0.000000
vn 1.000000 0.000000 0.000000
vn 1.000000 0.000000 0.000000
vn 1.000000 0.000000 0.000000
vn 0.000000 0.000000 1.000000
vn 0.000000 0.000000 1.000000
vn 0.000000 0.000000 1.000000
vn 0.000000 0.000000 1.000000
vn -1.000000 0.000000 0.000000
vn -1.000000 0.000000 0.000000
vn -1.000000 0.000000 0.000000
vn -1.000000 0.000000 0.000000
vn 0.000000 -1.000000 0.000000
vn 0.000000 -1.000000 0.000000
vn 0.000000 -1.000000 0.000000
vn 0.000000 -1.000000 0.000000
vn 0.000000 1.000000 0.000000
vn 0.000000 1.000000 0.000000
vn 0.000000 1.000000 0.000000
vn 0.000000 1.000000 0.000000
vn 0.000000 0.000000 -1.000000
vn 0.000000 0.000000 -1.000000
vn 0.000000 0.000000 -1.000000
vn 0.000000 0.000000 -1.000000
vn 1.000000 0.000000 0.000000
vn 1.000000 0.000000 0.000000
vn 1.000000 0.000000 0.000000
vn 1.000000 0.000000 0.000000
vn 0.000000 0.000000 1.000000
vn 0.000000 0.000000 1.000000
vn 0.000000 0.000000 1.000000
vn 0.000000 0.000000 1.000000
vn -1.000000 0.000000 0.000000
vn -1.000000 0.000000 0.000000
vn -1.000000 0.000000 0.000000
vn -1.000000 0.000000 0.000000
f 344/344/344 345/345/345 346/346/346
f 346/346/346 345/345/345 347/347/347
f 348/348/348 349/349/349 350/350/350
f 350/350/350 349/349/349 351/351/351
f 352/352/352 353/353/353 354/354/354
f 354/354/354 353/353/353 355/355/355
f 356/356/356 357/357/357 358/358/358
f 358/358/358 357/357/357 359/359/359
f 360/360/360 361/361/361 362/362/362
f 362/362/362 361/361/361 363/363/363
f 364/364/364 365/365/365 366/366/366
f 365/365/365 367/367/367 366/366/366
f 368/368/368 369/369/369 370/370/370
f 369/369/369 371/371/371 370/370/370
f 372/372/372 373/373/373 374/374/374
f 373/373/373 375/375/375 374/374/374
f 376/376/376 377/377/377 378/378/378
f 378/378/378 377/377/377 379/379/379
f 380/380/380 381/381/381 382/382/382
f 381/381/381 383/383/383 382/382/382
f 384/384/384 385/385/385 386/386/386
f 385/385/385 387/387/387 386/386/386
f 388/388/388 389/389/389 390/390/390
f 390/390/390 389/389/389 391/391/391
f 392/392/392 393/393/393 394/394/394
f 393/393/393 395/395/395 394/394/394
f 396/396/396 397/397/397 398/398/398
f 397/397/397 399/399/399 398/398/398
f 400/400/400 401/401/401 402/402/402
f 401/401/401 403/403/403 402/402/402
f 404/404/404 405/405/405 406/406/406
f 405/405/405 407/407/407 406/406/406
f 408/408/408 409/409/409 410/410/410
f 409/409/409 411/411/411 410/410/410
f 412/412/412 413/413/413 414/414/414
f 413/413/413 415/415/415 414/414/414
g leg_left
v 0.983099 0.068595 2.078741
v 0.810384 0.068595 2.078741
v 0.983099 0.068595 1.906026
v 0.810384 0.068595 1.906026
v 0.810384 0.114296 1.906026
v 0.810384 0.114296 2.078741
v 0.983099 0.114296 1.906026
v 0.983099 0.114296 2.078741
v 0.983099 0.068595 1.906026
v 0.810384 0.068595 1.906026
v 0.983099 0.114296 1.906026
v 0.810384 0.114296 1.906026
v 0.983099 0.114296 1.906026
v 0.983099 0.114296 2.078741
v 0.983099 0.068595 1.906026
v 0.983099 0.068595 2.078741
v 0.983099 0.114296 2.078741
v 0.810384 0.114296 2.078741
v 0.983099 0.068595 2.078741
v 0.810384 0.068595 2.078741
v 0.810384 0.114296 1.906026
v 0.810384 0.068595 1.906026
v 0.810384 0.114296 2.078741
v 0.810384 0.068595 2.078741
v 0.995436 0.114599 2.091078
v 0.798047 0.114599 2.091078
v 0.995436 0.114599 1.893689
v 0.798047 0.114599 1.893689
v 0.995436 0.315908 2.091078
v 0.995436 0.315908 1.893689
v 0.798047 0.315908 2.091078
v 0.798047 0.315908 1.893689
v 0.798047 0.114599 1.893689
v 0.798047 0.315908 1.893689
v 0.995436 0.114599 1.893689
v 0.995436 0.315908 1.893689
v 0.995436 0.114599 2.091078
v 0.995436 0.114599 1.893689
v 0.995436 0.315908 2.091078
v 0.995436 0.315908 1.893689
v 0.995436 0.315908 2.091078
v 0.798047 0.315908 2.091078
v 0.995436 0.114599 2.091078
v 0.798047 0.114599 2.091078
v 0.798047 0.114599 2.091078
v 0.798047 0.315908 2.091078
v 0.798047 0.114599 1.893689
v 0.798047 0.315908 1.893689
v 0.995436 -0.127651 2.091078
v 0.798047 -0.127651 2.091078
v 0.995436 -0.127651 1.893689
v 0.798047 -0.127651 1.893689
v 0.995436 0.069512 1.893689
v 0.798047 0.069512 1.893689
v 0.995436 0.069512 2.091078
v 0.798047 0.069512 2.091078
v 0.995436 -0.127651 1.893689
v 0.798047 -0.127651 1.893689
v 0.995436 0.069512 1.893689
v 0.798047 0.069512 1.893689
v 0.995436 -0.127651 2.091078
v 0.995436 -0.127651 1.893689
v 0.995436 0.069512 2.091078
v 0.995436 0.069512 1.893689
v 0.995436 0.069512 2.091078
v 0.798047 0.069512 2.091078
v 0.995436 -0.127651 2.091078
v 0.798047 -0.127651 2.091078
v 0.798047 0.069512 2.091078
v 0.798047 0.069512 1.893689
v 0.798047 -0.127651 2.091078
v 0.798047 -0.127651 1.893689
v 0.992279 -0.276258 2.091078
v 0.794890 -0.276258 2.091078
v 0.992279 -0.276258 1.794994
v 0.794890 -0.276258 1.794994
v 0.981313 -0.177564 1.893689
v 0.959381 -0.177564 1.893689
v 0.979942 -0.177564 1.906026
v 0.805856 -0.177564 1.893689
v 0.807227 -0.177564 1.906026
v 0.794890 -0.177564 1.893689
v 0.794890 -0.177564 1.906026
v 0.794890 -0.177564 2.091078
v 0.807227 -0.177564 2.078741
v 0.992279 -0.177564 2.091078
v 0.979942 -0.177564 2.078741
v 0.992279 -0.177564 2.041730
v 0.992279 -0.177564 1.906026
v 0.992279 -0.177564 1.893689
v 0.794890 -0.177564 1.794994
v 0.992279 -0.177564 1.794994
v 0.992279 -0.276258 1.794994
v 0.794890 -0.276258 1.794994
v 0.992279 -0.177564 1.794994
v 0.794890 -0.177564 1.794994
v 0.992279 -0.276258 1.794994
v 0.992279 -0.177564 1.893689
v 0.992279 -0.177564 2.091078
v 0.992279 -0.177564 1.794994
v 0.992279 -0.276258 2.091078
v 0.992279 -0.276258 2.091078
v 0.992279 -0.177564 2.091078
v 0.794890 -0.276258 2.091078
v 0.794890 -0.177564 2.091078
v 0.794890 -0.177564 2.091078
v 0.794890 -0.177564 1.794994
v 0.794890 -0.276258 2.091078
v 0.794890 -0.276258 1.794994
v 0.979942 -0.128217 2.078741
v 0.807227 -0.128217 1.906026
v 0.807227 -0.128217 2.078741
v 0.979942 -0.128217 1.906026
v 0.979942 -0.128217 2.078741
v 0.979942 -0.177564 2.078741
v 0.979942 -0.128217 1.906026
v 0.979942 -0.177564 1.906026
v 0.979942 -0.177564 2.078741
v 0.979942 -0.128217 2.078741
v 0.807227 -0.177564 2.078741
v 0.807227 -0.128217 2.078741
v 0.807227 -0.128217 1.906026
v 0.807227 -0.177564 1.906026
v 0.807227 -0.128217 2.078741
v 0.807227 -0.177564 2.078741
v 0.979942 -0.177564 1.906026
v 0.807227 -0.177564 1.906026
v 0.807227 -0.128217 1.906026
v 0.979942 -0.128217 1.906026
vt 0.623438 0.131250
vt 0.565625 0.131250
vt 0.623438 0.243750
vt 0.565625 0.243750
vt 0.565625 0.131250
vt 0.565625 0.243750
vt 0.623438 0.131250
vt 0.623438 0.243750
vt 0.437500 0.218750
vt 0.375000 0.218750
vt 0.437500 0.253125
vt 0.375000 0.253125
vt 0.437500 0.253125
vt 0.500000 0.253125
vt 0.437500 0.218750
vt 0.500000 0.218750
vt 0.500000 0.253125
vt 0.562500 0.253125
vt 0.500000 0.218750
vt 0.562500 0.218750
vt 0.375000 0.253125
vt 0.375000 0.218750
vt 0.312500 0.253125
vt 0.312500 0.218750
vt 0.623438 0.131250
vt 0.565625 0.131250
vt 0.623438 0.243750
vt 0.565625 0.243750
vt 0.623438 0.371875
vt 0.623438 0.253125
vt 0.564063 0.371875
vt 0.564063 0.253125
vt 0.375000 0.253125
vt 0.375000 0.375000
vt 0.437500 0.253125
vt 0.437500 0.375000
vt 0.500000 0.253125
vt 0.437500 0.253125
vt 0.500000 0.375000
vt 0.437500 0.375000
vt 0.500000 0.375000
vt 0.562500 0.375000
vt 0.500000 0.253125
vt 0.562500 0.253125
vt 0.312500 0.253125
vt 0.312500 0.375000
vt 0.375000 0.253125
vt 0.375000 0.375000
vt 0.623438 0.131250
vt 0.565625 0.131250
vt 0.623438 0.243750
vt 0.565625 0.243750
vt 0.623438 0.131250
vt 0.565625 0.131250
vt 0.623438 0.243750
vt 0.565625 0.243750
vt 0.437500 0.065625
vt 0.375000 0.065625
vt 0.437500 0.218750
vt 0.375000 0.218750
vt 0.500000 0.065625
vt 0.437500 0.065625
vt 0.500000 0.218750
vt 0.437500 0.218750
vt 0.500000 0.218750
vt 0.562500 0.218750
vt 0.500000 0.065625
vt 0.562500 0.065625
vt 0.312500 0.218750
vt 0.375000 0.218750
vt 0.312500 0.065625
vt 0.375000 0.065625
vt 0.779688 0.215625
vt 0.720313 0.215625
vt 0.779688 0.062500
vt 0.720313 0.062500
vt 0.621875 0.125000
vt 0.614063 0.125000
vt 0.620313 0.131250
vt 0.567188 0.125000
vt 0.568750 0.131250
vt 0.564063 0.125000
vt 0.564063 0.131250
vt 0.564063 0.246875
vt 0.568750 0.240625
vt 0.623438 0.246875
vt 0.620313 0.240625
vt 0.623438 0.212500
vt 0.623438 0.131250
vt 0.623438 0.125000
vt 0.564063 0.065625
vt 0.623438 0.065625
vt 0.623438 0.003125
vt 0.564063 0.003125
vt 0.623438 0.059375
vt 0.564063 0.059375
vt 0.626563 0.003125
vt 0.657813 0.059375
vt 0.717188 0.059375
vt 0.626563 0.059375
vt 0.717188 0.003125
vt 0.720313 0.003125
vt 0.720313 0.059375
vt 0.779688 0.003125
vt 0.779688 0.059375
vt 0.470313 0.059375
vt 0.560938 0.059375
vt 0.470313 0.003125
vt 0.560938 0.003125
vt 0.435938 0.121875
vt 0.376563 0.096875
vt 0.376563 0.121875
vt 0.435938 0.096875
vt 0.498438 0.090625
vt 0.498438 0.065625
vt 0.439063 0.090625
vt 0.439063 0.065625
vt 0.501563 0.065625
vt 0.501563 0.090625
vt 0.560938 0.065625
vt 0.560938 0.090625
vt 0.373438 0.090625
vt 0.373438 0.065625
vt 0.314063 0.090625
vt 0.314063 0.065625
vt 0.376563 0.065625
vt 0.435938 0.065625
vt 0.435938 0.090625
vt 0.376563 0.090625
vn 0.000000 -1.000000 0.000000
vn 0.000000 -1.000000 0.000000
vn 0.000000 -1.000000 0.000000
vn 0.000000 -1.000000 0.000000
vn 0.000000 1.000000 0.000000
vn 0.000000 1.000000 0.000000
vn 0.000000 1.000000 0.000000
vn 0.000000 1.000000 0.000000
vn 0.000000 0.000000 -1.000000
vn 0.000000 0.000000 -1.000000
vn 0.000000 0.000000 -1.000000
vn 0.000000 0.000000 -1.000000
vn 1.000000 0.000000 0.000000
vn 1.000000 0.000000 0.000000
vn 1.000000 0.000000 0.000000
vn 1.000000 0.000000 0.000000
vn 0.000000 0.000000 1.000000
vn 0.000000 0.000000 1.000000
vn 0.000000 0.000000 1.000000
vn 0.000000 0.000000 1.000000
vn -1.000000 0.000000 0.000000
vn -1.000000 0.000000 0.000000
vn -1.000000 0.000000 0.000000
vn -1.000000 0.000000 0.000000
vn 0.000000 -1.000000 0.000000
vn 0.000000 -1.000000 0.000000
vn 0.000000 -1.000000 0.000000
vn 0.000000 -1.000000 0.000000
vn 0.000000 1.000000 0.000000
vn 0.000000 1.000000 0.000000
vn 0.000000 1.000000 0.000000
vn 0.000000 1.000000 0.000000
vn 0.000000 0.000000 -1.000000
vn 0.000000 0.000000 -1.000000
vn 0.000000 0.000000 -1.000000
vn 0.000000 0.000000 -1.000000
vn 1.000000 0.000000 0.000000
vn 1.000000 0.000000 0.000000
vn 1.000000 0.000000 0.000000
vn 1.000000 0.000000 0.000000
vn 0.000000 0.000000 1.000000
vn 0.000000 0.000000 1.000000
vn 0.000000 0.000000 1.000000
vn 0.000000 0.000000 1.000000
vn -1.000000 0.000000 0.000000
vn -1.000000 0.000000 0.000000
vn -1.000000 0.000000 0.000000
vn -1.000000 0.000000 0.000000
vn 0.000000 -1.000000 0.000000
vn 0.000000 -1.000000 0.000000
vn 0.000000 -1.000000 0.000000
vn 0.000000 -1.000000 0.000000
vn 0.000000 1.000000 0.000000
vn 0.000000 1.000000 0.000000
vn 0.000000 1.000000 0.000000
vn 0.000000 1.000000 0.000000
vn 0.000000 0.000000 -1.000000
vn 0.000000 0.000000 -1.000000
vn 0.000000 0.000000 -1.000000
vn 0.000000 0.000000 -1.000000
vn 1.000000 0.000000 0.000000
vn 1.000000 0.000000 0.000000
vn 1.000000 0.000000 0.000000
vn 1.000000 0.000000 0.000000
vn 0.000000 0.000000 1.000000
vn 0.000000 0.000000 1.000000
vn 0.000000 0.000000 1.000000
vn 0.000000 0.000000 1.000000
vn -1.000000 0.000000 0.000000
vn -1.000000 0.000000 0.000000
vn -1.000000 0.000000 0.000000
vn -1.000000 0.000000 0.000000
vn 0.000000 -1.000000 0.000000
vn 0.000000 -1.000000 0.000000
vn 0.000000 -1.000000 0.000000
vn 0.000000 -1.000000 0.000000
vn 0.000000 1.000000 0.000000
vn 0.000000 1.000000 0.000000
vn 0.000000 1.000000 0.000000
vn 0.000000 1.000000 0.000000
vn 0.000000 1.000000 0.000000
vn 0.000000 1.000000 0.000000
vn 0.000000 1.000000 0.000000
vn 0.000000 1.000000 0.000000
vn 0.000000 1.000000 0.000000
vn 0.000000 1.000000 0.000000
vn 0.000000 1.000000 0.000000
vn 0.000000 1.000000 0.000000
vn 0.000000 1.000000 0.000000
vn 0.000000 1.000000 0.000000
vn 0.000000 1.000000 0.000000
vn 0.000000 1.000000 0.000000
vn 0.000000 0.000000 -1.000000
vn 0.000000 0.000000 -1.000000
vn 0.000000 0.000000 -1.000000
vn 0.000000 0.000000 -1.000000
vn 1.000000 0.000000 0.000000
vn 1.000000 0.000000 0.000000
vn 1.000000 0.000000 0.000000
vn 1.000000 0.000000 0.000000
vn 1.000000 0.000000 0.000000
vn 0.000000 0.000000 1.000000
vn 0.000000 0.000000 1.000000
vn 0.000000 0.000000 1.000000
vn 0.000000 0.000000 1.000000
vn -1.000000 0.000000 0.000000
vn -1.000000 0.000000 0.000000
vn -1.000000 0.000000 0.000000
vn -1.000000 0.000000 0.000000
vn 0.000000 1.000000 0.000000
vn 0.000000 1.000000 0.000000
vn 0.000000 1.000000 0.000000
vn 0.000000 1.000000 0.000000
vn 1.000000 0.000000 0.000000
vn 1.000000 0.000000 0.000000
vn 1.000000 0.000000 0.000000
vn 1.000000 0.000000 0.000000
vn 0.000000 0.000000 1.000000
vn 0.000000 0.000000 1.000000
vn 0.000000 0.000000 1.000000
vn 0.000000 0.000000 1.000000
vn -1.000000 0.000000 0.000000
vn -1.000000 0.000000 0.000000
vn -1.000000 0.000000 0.000000
vn -1.000000 0.000000 0.000000
vn 0.000000 0.000000 -1.000000
vn 0.000000 0.000000 -1.000000
vn 0.000000 0.000000 -1.000000
vn 0.000000 0.000000 -1.000000
f 416/416/416 417/417/417 418/418/418
f 418/418/418 417/417/417 419/419/419
f 420/420/420 421/421/421 422/422/422
f 422/422/422 421/421/421 423/423/423
f 424/424/424 425/425/425 426/426/426
f 426/426/426 425/425/425 427/427/427
f 428/428/428 429/429/429 430/430/430
f 430/430/430 429/429/429 431/431/431
f 432/432/432 433/433/433 434/434/434
f 434/434/434 433/433/433 435/435/435
f 436/436/436 437/437/437 438/438/438
f 437/437/437 439/439/439 438/438/438
f 440/440/440 441/441/441 442/442/442
f 441/441/441 443/443/443 442/442/442
f 444/444/444 445/445/445 446/446/446
f 445/445/445 447/447/447 446/446/446
f 448/448/448 449/449/449 450/450/450
f 450/450/450 449/449/449 451/451/451
f 452/452/452 453/453/453 454/454/454
f 453/453/453 455/455/455 454/454/454
f 456/456/456 457/457/457 458/458/458
f 457/457/457 459/459/459 458/458/458
f 460/460/460 461/461/461 462/462/462
f 462/462/462 461/461/461 463/463/463
f 464/464/464 465/465/465 466/466/466
f 465/465/465 467/467/467 466/466/466
f 468/468/468 469/469/469 470/470/470
f 469/469/469 471/471/471 470/470/470
f 472/472/472 473/473/473 474/474/474
f 473/473/473 475/475/475 474/474/474
f 476/476/476 477/477/477 478/478/478
f 477/477/477 479/479/479 478/478/478
f 480/480/480 481/481/481 482/482/482
f 481/481/481 483/483/483 482/482/482
f 484/484/484 485/485/485 486/486/486
f 485/485/485 487/487/487 486/486/486
f 488/488/488 489/489/489 490/490/490
f 489/489/489 491/491/491 490/490/490
f 492/492/492 493/493/493 494/494/494
f 495/495/495 494/494/494 493/493/493
f 494/494/494 495/495/495 496/496/496
f 497/497/497 496/496/496 495/495/495
f 496/496/496 497/497/497 498/498/498
f 496/496/496 498/498/498 499/499/499
f 499/499/499 500/500/500 496/496/496
f 501/501/501 500/500/500 499/499/499
f 500/500/500 501/501/501 502/502/502
f 503/503/503 494/494/494 502/502/502
f 502/502/502 501/501/501 503/503/503
f 494/494/494 503/503/503 504/504/504
f 504/504/504 492/492/492 494/494/494
f 492/492/492 504/504/504 505/505/505
f 497/497/497 495/495/495 506/506/506
f 495/495/495 493/493/493 506/506/506
f 507/507/507 493/493/493 492/492/492
f 493/493/493 507/507/507 506/506/506
f 492/492/492 505/505/505 507/507/507
f 508/508/508 509/509/509 510/510/510
f 510/510/510 509/509/509 511/511/511
f 512/512/512 513/513/513 514/514/514
f 513/513/513 512/512/512 515/515/515
f 512/512/512 514/514/514 516/516/516
f 517/517/517 518/518/518 519/519/519
f 518/518/518 520/520/520 519/519/519
f 521/521/521 522/522/522 523/523/523
f 523/523/523 522/522/522 524/524/524
f 525/525/525 526/526/526 527/527/527
f 528/528/528 526/526/526 525/525/525
f 529/529/529 530/530/530 531/531/531
f 530/530/530 532/532/532 531/531/531
f 533/533/533 534/534/534 535/535/535
f 534/534/534 536/536/536 535/535/535
f 537/537/537 538/538/538 539/539/539
f 538/538/538 540/540/540 539/539/539
f 541/541/541 542/542/542 543/543/543
f 544/544/544 541/541/541 543/543/543
